<svg width="45" height="44" viewBox="0 0 45 44" fill="none" xmlns="http://www.w3.org/2000/svg">
<g clip-path="url(#clip0_2735_8920)">
<path fill-rule="evenodd" clip-rule="evenodd" d="M39 6.28096C39 4.56313 37.1575 3.41546 35.6065 4.26796C33.522 5.41196 27.351 8.74496 23.6568 10.2135C19.3577 11.9203 15.6562 12.562 11.4138 12.76C8.475 12.8956 6 15.2698 6 18.3333V25.6666C6 28.7301 8.475 31.1043 11.4138 31.24C11.9162 31.2638 12.4093 31.2931 12.8988 31.3298L11.5348 38.1406C11.4395 38.6176 11.5376 39.1129 11.8075 39.5176C12.0774 39.9223 12.497 40.2032 12.974 40.2985C13.451 40.3938 13.9463 40.2957 14.351 40.0258C14.7557 39.7559 15.0365 39.3363 15.1318 38.8593L16.549 31.768C18.8645 32.1621 21.1598 32.7946 23.6568 33.7865C27.351 35.255 33.5202 38.5898 35.6065 39.732C37.1575 40.5845 39 39.4368 39 37.719V6.28096ZM17 28.127C19.5997 28.5578 22.1938 29.26 25.0117 30.3801C28.0403 31.5828 32.5027 33.8983 35.3333 35.4145V8.58546C32.5027 10.1016 28.0403 12.4171 25.0117 13.6198C22.1938 14.7381 19.5997 15.4421 17 15.8748V28.127ZM13.3333 16.3148C12.7558 16.3588 12.1747 16.3955 11.5843 16.423C10.4788 16.4743 9.66667 17.347 9.66667 18.3333V25.6666C9.66667 26.653 10.4788 27.5256 11.5843 27.577C12.1747 27.6045 12.7577 27.6411 13.3333 27.687V16.3148Z" fill="#C10D10"/>
</g>
<defs>
<clipPath id="clip0_2735_8920">
<rect width="44" height="44" fill="white" transform="translate(0.5)"/>
</clipPath>
</defs>
</svg>
