<svg width="25" height="21" viewBox="0 0 25 21" fill="none" xmlns="http://www.w3.org/2000/svg">
<path d="M4.68807 9.73031C4.90778 9.73031 5.11121 9.77037 5.29837 9.85049C5.48552 9.93062 5.64827 10.0388 5.7866 10.175C5.92493 10.3112 6.03886 10.4755 6.12837 10.6678C6.21788 10.8601 6.25856 11.0604 6.25042 11.2687C6.25042 11.485 6.20974 11.6853 6.12837 11.8696C6.04699 12.0539 5.93714 12.2142 5.79881 12.3504C5.66047 12.4866 5.49366 12.5988 5.29837 12.6869C5.10307 12.775 4.89964 12.8151 4.68807 12.8071C4.46837 12.8071 4.26494 12.767 4.07778 12.6869C3.89062 12.6068 3.72788 12.4986 3.58954 12.3624C3.45121 12.2262 3.33729 12.0619 3.24778 11.8696C3.15827 11.6773 3.11758 11.477 3.12572 11.2687C3.12572 11.0524 3.16641 10.852 3.24778 10.6678C3.32915 10.4835 3.439 10.3232 3.57734 10.187C3.71567 10.0508 3.88248 9.93863 4.07778 9.85049C4.27307 9.76236 4.4765 9.72229 4.68807 9.73031ZM20.3116 9.73031C20.5313 9.73031 20.7347 9.77037 20.9219 9.85049C21.109 9.93062 21.2718 10.0388 21.4101 10.175C21.5485 10.3112 21.6624 10.4755 21.7519 10.6678C21.8414 10.8601 21.8821 11.0604 21.8739 11.2687C21.8739 11.485 21.8333 11.6853 21.7519 11.8696C21.6705 12.0539 21.5607 12.2142 21.4223 12.3504C21.284 12.4866 21.1172 12.5988 20.9219 12.6869C20.7266 12.775 20.5232 12.8151 20.3116 12.8071C20.0919 12.8071 19.8885 12.767 19.7013 12.6869C19.5141 12.6068 19.3514 12.4986 19.2131 12.3624C19.0747 12.2262 18.9608 12.0619 18.8713 11.8696C18.7818 11.6773 18.7411 11.477 18.7492 11.2687C18.7492 11.0524 18.7899 10.852 18.8713 10.6678C18.9527 10.4835 19.0625 10.3232 19.2009 10.187C19.3392 10.0508 19.506 9.93863 19.7013 9.85049C19.8966 9.76236 20.1 9.72229 20.3116 9.73031ZM24.547 6.65354L23.7414 7.43475C23.7577 7.47481 23.7984 7.595 23.8635 7.79531C23.9286 7.99562 24.0059 8.23199 24.0954 8.50441C24.1849 8.77683 24.2866 9.06928 24.4006 9.38177C24.5145 9.69425 24.6121 9.97869 24.6935 10.2351C24.7749 10.4915 24.8481 10.7078 24.9132 10.8841C24.9783 11.0604 25.0068 11.1485 24.9986 11.1485V18.9606C24.9986 19.177 24.958 19.3773 24.8766 19.5615C24.7952 19.7458 24.6854 19.9061 24.547 20.0423C24.4087 20.1785 24.2419 20.2907 24.0466 20.3788C23.8513 20.4669 23.6479 20.507 23.4363 20.499H21.8739C21.6542 20.499 21.4508 20.4589 21.2636 20.3788C21.0765 20.2987 20.9137 20.1905 20.7754 20.0543C20.6371 19.9181 20.5232 19.7538 20.4336 19.5615C20.3441 19.3692 20.3035 19.1689 20.3116 18.9606H4.68807C4.68807 19.177 4.64739 19.3773 4.56601 19.5615C4.48464 19.7458 4.37479 19.9061 4.23645 20.0423C4.09812 20.1785 3.93131 20.2907 3.73601 20.3788C3.54072 20.4669 3.33729 20.507 3.12572 20.499H1.56337C1.34366 20.499 1.14023 20.4589 0.953075 20.3788C0.765919 20.2987 0.603174 20.1905 0.46484 20.0543C0.326507 19.9181 0.212586 19.7538 0.123076 19.5615C0.0335662 19.3692 -0.00712009 19.1689 0.00101716 18.9606V11.1485L0.0864583 10.8961L0.306164 10.2471L0.599105 9.38177C0.704889 9.06928 0.802536 8.77683 0.892046 8.50441C0.981556 8.23199 1.06293 7.99562 1.13616 7.79531C1.2094 7.595 1.25008 7.47481 1.25822 7.43475L0.452634 6.65354H0.00101716V5.11515H1.11175L1.80749 5.81223L2.71072 3.13208C2.84092 2.73947 3.02807 2.38292 3.27219 2.06242C3.51631 1.74193 3.80518 1.4655 4.13881 1.23314C4.47244 1.00078 4.82641 0.820497 5.20072 0.692298C5.57503 0.564099 5.98189 0.5 6.42131 0.5H18.5784C19.0015 0.5 19.4043 0.564099 19.7867 0.692298C20.1692 0.820497 20.5272 0.99677 20.8609 1.22112C21.1945 1.44547 21.4793 1.72189 21.7153 2.0504C21.9512 2.37891 22.1425 2.73947 22.2889 3.13208L23.1922 5.81223L23.8879 5.11515H24.9986V6.65354H24.547ZM6.42131 2.03838C5.90866 2.03838 5.45297 2.18261 5.05425 2.47106C4.65552 2.7595 4.37072 3.14009 4.19984 3.61282L3.16234 6.65354H21.8373L20.7998 3.61282C20.6371 3.14009 20.3563 2.7595 19.9576 2.47106C19.5589 2.18261 19.0991 2.03838 18.5784 2.03838H6.42131ZM17.1869 16.8333L15.9175 14.3455H9.08219L7.81278 16.8333V17.4222H17.1869V16.8333ZM23.4363 17.4222V11.3889L23.3631 11.1725C23.3142 11.0283 23.2532 10.84 23.18 10.6077C23.1067 10.3753 23.0213 10.1309 22.9236 9.87453C22.826 9.61813 22.7406 9.36574 22.6673 9.11736C22.5941 8.86897 22.5249 8.66466 22.4598 8.50441C22.3947 8.34416 22.3581 8.24 22.35 8.19192H2.64969C2.63342 8.23199 2.5968 8.33615 2.53984 8.50441C2.48288 8.67267 2.41371 8.87298 2.33234 9.10534C2.25097 9.3377 2.16553 9.59009 2.07602 9.86251C1.98651 10.1349 1.90513 10.3833 1.8319 10.6077C1.75866 10.832 1.69356 11.0163 1.6366 11.1605C1.57964 11.3047 1.55523 11.3809 1.56337 11.3889V17.4222H6.25042V16.4728L8.10572 12.8071H16.8939L18.7492 16.4728V17.4222H23.4363Z" fill="#CE9D9D"/>
</svg>
