<svg width="44" height="42" viewBox="0 0 44 42" fill="none" xmlns="http://www.w3.org/2000/svg">
<g filter="url(#filter0_ii_3006_2353)">
<path d="M20.0391 1.39807C20.9272 -0.401142 23.4929 -0.401142 24.381 1.39807L29.1282 11.0154C29.4806 11.7292 30.1613 12.2242 30.949 12.3394L41.5689 13.8916C43.554 14.1818 44.3451 16.6218 42.908 18.0215L35.2273 25.5025C34.6562 26.0587 34.3956 26.8604 34.5303 27.6461L36.3425 38.2119C36.6817 40.1898 34.6056 41.6979 32.8295 40.7639L23.3369 35.7719C22.6315 35.4009 21.7886 35.4009 21.0832 35.7719L11.5906 40.7639C9.81451 41.6979 7.73838 40.1898 8.07761 38.2119L9.88977 27.6461C10.0245 26.8604 9.76387 26.0587 9.19282 25.5025L1.5121 18.0215C0.0750079 16.6218 0.866152 14.1818 2.85117 13.8916L13.4711 12.3394C14.2588 12.2242 14.9395 11.7292 15.2919 11.0154L20.0391 1.39807Z" fill="url(#paint0_linear_3006_2353)"/>
</g>
<defs>
<filter id="filter0_ii_3006_2353" x="0.777344" y="-2.37236" width="42.8652" height="43.4199" filterUnits="userSpaceOnUse" color-interpolation-filters="sRGB">
<feFlood flood-opacity="0" result="BackgroundImageFix"/>
<feBlend mode="normal" in="SourceGraphic" in2="BackgroundImageFix" result="shape"/>
<feColorMatrix in="SourceAlpha" type="matrix" values="0 0 0 0 0 0 0 0 0 0 0 0 0 0 0 0 0 0 127 0" result="hardAlpha"/>
<feOffset dy="-2.42101"/>
<feGaussianBlur stdDeviation="2.42101"/>
<feComposite in2="hardAlpha" operator="arithmetic" k2="-1" k3="1"/>
<feColorMatrix type="matrix" values="0 0 0 0 0.779411 0 0 0 0 0.463186 0 0 0 0 0.155745 0 0 0 0.57 0"/>
<feBlend mode="normal" in2="shape" result="effect1_innerShadow_3006_2353"/>
<feColorMatrix in="SourceAlpha" type="matrix" values="0 0 0 0 0 0 0 0 0 0 0 0 0 0 0 0 0 0 127 0" result="hardAlpha"/>
<feOffset dy="-2.42101"/>
<feGaussianBlur stdDeviation="1.2105"/>
<feComposite in2="hardAlpha" operator="arithmetic" k2="-1" k3="1"/>
<feColorMatrix type="matrix" values="0 0 0 0 1 0 0 0 0 0.858824 0 0 0 0 0.721569 0 0 0 0.72 0"/>
<feBlend mode="normal" in2="effect1_innerShadow_3006_2353" result="effect2_innerShadow_3006_2353"/>
</filter>
<linearGradient id="paint0_linear_3006_2353" x1="12.5605" y1="2.12913" x2="23.097" y2="39.9685" gradientUnits="userSpaceOnUse">
<stop stop-color="#FFDBB8"/>
<stop offset="1" stop-color="#CD7F32"/>
</linearGradient>
</defs>
</svg>
