<svg width="24" height="25" viewBox="0 0 24 25" fill="none" xmlns="http://www.w3.org/2000/svg">
<path d="M12 2.79102C17.5 2.79102 22 7.29102 22 12.791C22 18.291 17.5 22.791 12 22.791C6.5 22.791 2 18.291 2 12.791C2 7.29102 6.5 2.79102 12 2.79102ZM12 4.79102C10.1 4.79102 8.4 5.39102 7.1 6.49102L18.3 17.691C19.3 16.291 20 14.591 20 12.791C20 8.39102 16.4 4.79102 12 4.79102ZM16.9 19.091L5.7 7.89102C4.6 9.19102 4 10.891 4 12.791C4 17.191 7.6 20.791 12 20.791C13.9 20.791 15.6 20.191 16.9 19.091Z" fill="black"/>
</svg>
