<svg width="74" height="73" viewBox="0 0 74 73" fill="none" xmlns="http://www.w3.org/2000/svg">
<circle cx="37.0214" cy="36.5901" r="35.4101" fill="#C10D10" stroke="white" stroke-width="2"/>
<path d="M46.124 27.4877C45.1986 27.4877 44.349 26.9567 43.9242 26.1375L42.8319 23.9377C42.1341 22.5571 40.3135 21.4193 38.7661 21.4193H35.292C33.7294 21.4193 31.9089 22.5571 31.211 23.9377L30.1187 26.1375C29.6939 26.9567 28.8444 27.4877 27.919 27.4877C24.6269 27.4877 22.0175 30.2639 22.2299 33.5408L23.0188 46.072C23.2008 49.1972 24.8848 51.761 29.0719 51.761H44.971C49.1582 51.761 50.827 49.1972 51.0242 46.072L51.8131 33.5408C52.0255 30.2639 49.4161 27.4877 46.124 27.4877ZM34.7458 29.384H39.2971C39.9191 29.384 40.4349 29.8998 40.4349 30.5218C40.4349 31.1438 39.9191 31.6596 39.2971 31.6596H34.7458C34.1238 31.6596 33.608 31.1438 33.608 30.5218C33.608 29.8998 34.1238 29.384 34.7458 29.384ZM37.0215 45.8747C34.1997 45.8747 31.8937 43.5839 31.8937 40.747C31.8937 37.91 34.1845 35.6192 37.0215 35.6192C39.8584 35.6192 42.1492 37.91 42.1492 40.747C42.1492 43.5839 39.8433 45.8747 37.0215 45.8747Z" fill="white"/>
</svg>
