<svg width="16" height="17" viewBox="0 0 16 17" fill="none" xmlns="http://www.w3.org/2000/svg">
<path fill-rule="evenodd" clip-rule="evenodd" d="M11.9378 1.25034C11.7789 0.996462 11.5448 0.798435 11.2681 0.683828C10.9914 0.56922 10.6858 0.543736 10.394 0.610922L8.32246 1.08674C8.11017 1.13554 7.88957 1.13554 7.67728 1.08674L5.60578 0.610922C5.31391 0.543736 5.00835 0.56922 4.73164 0.683828C4.45493 0.798435 4.22084 0.996462 4.06195 1.25034L2.93288 3.05225C2.81767 3.23658 2.66213 3.39212 2.4778 3.50848L0.675894 4.63755C0.42245 4.7963 0.224713 5.03002 0.110131 5.30625C-0.00445181 5.58249 -0.0301959 5.88755 0.0364716 6.17908L0.512294 8.25288C0.560911 8.4648 0.560911 8.68499 0.512294 8.89691L0.0364716 10.9696C-0.030455 11.2613 -0.00484047 11.5666 0.109754 11.843C0.224349 12.1195 0.422231 12.3534 0.675894 12.5122L2.4778 13.6413C2.66213 13.7565 2.81767 13.9121 2.93403 14.0964L4.0631 15.8983C4.388 16.4179 5.00783 16.6748 5.60578 16.5377L7.67728 16.0619C7.88957 16.0131 8.11017 16.0131 8.32246 16.0619L10.3951 16.5377C10.6868 16.6046 10.9921 16.579 11.2686 16.4644C11.5451 16.3498 11.779 16.152 11.9378 15.8983L13.0669 14.0964C13.1821 13.9121 13.3376 13.7565 13.5219 13.6413L15.325 12.5122C15.5787 12.3532 15.7765 12.119 15.8909 11.8423C16.0053 11.5656 16.0306 11.2602 15.9633 10.9684L15.4886 8.89691C15.4398 8.68462 15.4398 8.46402 15.4886 8.25173L15.9644 6.17908C16.0315 5.8875 16.006 5.58227 15.8916 5.30581C15.7772 5.02935 15.5796 4.79538 15.3261 4.6364L13.5231 3.50733C13.339 3.39191 13.1834 3.23633 13.068 3.05225L11.9378 1.25034Z" fill="white"/>
<path fill-rule="evenodd" clip-rule="evenodd" d="M11.9378 1.25034C11.7789 0.996462 11.5448 0.798435 11.2681 0.683828C10.9914 0.56922 10.6858 0.543736 10.394 0.610922L8.32246 1.08674C8.11017 1.13554 7.88957 1.13554 7.67728 1.08674L5.60578 0.610922C5.31391 0.543736 5.00835 0.56922 4.73164 0.683828C4.45493 0.798435 4.22084 0.996462 4.06195 1.25034L2.93288 3.05225C2.81767 3.23658 2.66213 3.39212 2.4778 3.50848L0.675894 4.63755C0.42245 4.7963 0.224713 5.03002 0.110131 5.30625C-0.00445181 5.58249 -0.0301959 5.88755 0.0364716 6.17908L0.512294 8.25288C0.560911 8.4648 0.560911 8.68499 0.512294 8.89691L0.0364716 10.9696C-0.030455 11.2613 -0.00484047 11.5666 0.109754 11.843C0.224349 12.1195 0.422231 12.3534 0.675894 12.5122L2.4778 13.6413C2.66213 13.7565 2.81767 13.9121 2.93403 14.0964L4.0631 15.8983C4.388 16.4179 5.00783 16.6748 5.60578 16.5377L7.67728 16.0619C7.88957 16.0131 8.11017 16.0131 8.32246 16.0619L10.3951 16.5377C10.6868 16.6046 10.9921 16.579 11.2686 16.4644C11.5451 16.3498 11.779 16.152 11.9378 15.8983L13.0669 14.0964C13.1821 13.9121 13.3376 13.7565 13.5219 13.6413L15.325 12.5122C15.5787 12.3532 15.7765 12.119 15.8909 11.8423C16.0053 11.5656 16.0306 11.2602 15.9633 10.9684L15.4886 8.89691C15.4398 8.68462 15.4398 8.46402 15.4886 8.25173L15.9644 6.17908C16.0315 5.8875 16.006 5.58227 15.8916 5.30581C15.7772 5.02935 15.5796 4.79538 15.3261 4.6364L13.5231 3.50733C13.339 3.39191 13.1834 3.23633 13.068 3.05225L11.9378 1.25034ZM11.3583 6.00511C11.4295 5.87408 11.4472 5.72051 11.4075 5.57672C11.3679 5.43293 11.274 5.31014 11.1456 5.23417C11.0173 5.1582 10.8644 5.13497 10.7193 5.16939C10.5742 5.2038 10.448 5.29317 10.3675 5.41868L7.35469 10.5179L5.5355 8.77594C5.48153 8.72052 5.41696 8.67655 5.34562 8.64663C5.27429 8.61671 5.19766 8.60147 5.12031 8.6018C5.04296 8.60214 4.96646 8.61805 4.8954 8.64859C4.82433 8.67913 4.76014 8.72367 4.70665 8.77955C4.65317 8.83543 4.61149 8.90152 4.58409 8.97386C4.5567 9.0462 4.54416 9.12331 4.54721 9.20061C4.55027 9.2779 4.56886 9.35379 4.60188 9.42374C4.6349 9.49369 4.68166 9.55628 4.73939 9.60776L7.08279 11.8532C7.14551 11.9132 7.22096 11.9582 7.30353 11.9849C7.38609 12.0117 7.47362 12.0194 7.55958 12.0075C7.64555 11.9957 7.72772 11.9646 7.79997 11.9165C7.87222 11.8684 7.93268 11.8047 7.97683 11.73L11.3583 6.00511Z" fill="#0093FF"/>
</svg>
