<svg width="37" height="37" viewBox="0 0 37 37" fill="none" xmlns="http://www.w3.org/2000/svg">
<g clip-path="url(#clip0_2717_10062)">
<path d="M30.3335 3.89502H14.3335V8.89502H16.3335V5.89502H30.3335C30.9335 5.89502 31.3335 6.29502 31.3335 6.89502V17.895C31.3335 18.495 30.9335 18.895 30.3335 18.895H17.3335V25.895H12.0335L8.3335 28.795V25.895H5.3335C4.7335 25.895 4.3335 25.495 4.3335 24.895V13.895C4.3335 13.295 4.7335 12.895 5.3335 12.895H18.3335V10.895H5.3335C3.6335 10.895 2.3335 12.195 2.3335 13.895V24.895C2.3335 26.595 3.6335 27.895 5.3335 27.895H6.3335V32.995L12.6335 27.895H19.3335V20.895H30.3335C32.0335 20.895 33.3335 19.595 33.3335 17.895V6.89502C33.3335 5.19502 32.0335 3.89502 30.3335 3.89502Z" fill="white"/>
<path d="M6.53369 23.795H8.93369L9.53369 22.195H12.6337L13.2337 23.795H15.6337L12.2337 14.895H9.83369L6.53369 23.795ZM11.0337 17.395L12.0337 20.495H10.0337L11.0337 17.395Z" fill="white"/>
<path d="M20.3335 17.895C21.4335 17.895 22.9335 17.595 24.3335 16.895C25.7335 17.595 27.3335 17.895 28.3335 17.895V15.895C28.3335 15.895 27.3335 15.895 26.2335 15.495C27.4335 14.295 28.3335 12.495 28.3335 9.89502V8.89502H25.3335V6.89502H23.3335V8.89502H20.3335V10.895H26.2335C26.0335 12.695 25.2335 13.795 24.3335 14.495C23.7335 13.995 23.1335 13.295 22.7335 12.395H20.6335C21.0335 13.695 21.6335 14.695 22.4335 15.495C21.4335 15.895 20.5335 15.895 20.3335 15.895V17.895Z" fill="white"/>
</g>
<defs>
<clipPath id="clip0_2717_10062">
<rect width="36" height="36" fill="white" transform="translate(0.333496 0.89502)"/>
</clipPath>
</defs>
</svg>
