<svg width="36" height="36" viewBox="0 0 36 36" fill="none" xmlns="http://www.w3.org/2000/svg">
<path d="M0 18C0 8.05888 8.05888 0 18 0H36V36H18C8.05888 36 0 27.9411 0 18Z" fill="#F55157"/>
<path d="M12.9283 14.1841C12.5812 13.8369 12.5812 13.2741 12.9283 12.927C13.2755 12.5798 13.8383 12.5798 14.1854 12.927L18.0013 16.7429L21.8172 12.927C22.1643 12.5798 22.7271 12.5798 23.0743 12.927C23.4214 13.2741 23.4214 13.8369 23.0743 14.1841L19.2583 17.9999L23.0743 21.8158C23.4214 22.163 23.4214 22.7258 23.0743 23.0729C22.7271 23.4201 22.1643 23.4201 21.8172 23.0729L18.0013 19.257L14.1854 23.0729C13.8383 23.4201 13.2755 23.4201 12.9283 23.0729C12.5812 22.7258 12.5812 22.163 12.9283 21.8158L16.7442 17.9999L12.9283 14.1841Z" fill="white"/>
</svg>
