<svg width="48" height="48" viewBox="0 0 48 48" fill="none" xmlns="http://www.w3.org/2000/svg">
<path fill-rule="evenodd" clip-rule="evenodd" d="M15.3395 3.99854L32.6795 3.99854C39.4595 3.99854 43.9995 8.75854 43.9995 15.8385V32.1805C43.9995 39.2405 39.4595 43.9985 32.6795 43.9985H15.3395C8.55951 43.9985 3.99951 39.2405 3.99951 32.1805L3.99951 15.8385C3.99951 8.75854 8.55951 3.99854 15.3395 3.99854ZM30.0195 29.9985C30.6995 29.3205 30.6995 28.2205 30.0195 27.5405L26.4595 23.9805L30.0195 20.4185C30.6995 19.7405 30.6995 18.6205 30.0195 17.9405C29.3395 17.2585 28.2395 17.2585 27.5395 17.9405L23.9995 21.4985L20.4395 17.9405C19.7395 17.2585 18.6395 17.2585 17.9595 17.9405C17.2795 18.6205 17.2795 19.7405 17.9595 20.4185L21.5195 23.9805L17.9595 27.5205C17.2795 28.2205 17.2795 29.3205 17.9595 29.9985C18.2995 30.3385 18.7595 30.5205 19.1995 30.5205C19.6595 30.5205 20.0995 30.3385 20.4395 29.9985L23.9995 26.4605L27.5595 29.9985C27.8995 30.3605 28.3395 30.5205 28.7795 30.5205C29.2395 30.5205 29.6795 30.3385 30.0195 29.9985Z" fill="#CACACA"/>
</svg>
