<svg width="22" height="25" viewBox="0 0 22 25" fill="none" xmlns="http://www.w3.org/2000/svg">
<path d="M3.2487 24.5177C2.58411 24.5177 2.01539 24.2813 1.54253 23.8084C1.06967 23.3356 0.832837 22.7665 0.832031 22.1011V2.76774C0.832031 2.10316 1.06886 1.53444 1.54253 1.06157C2.0162 0.588713 2.58492 0.35188 3.2487 0.351074H12.9154L20.1654 7.60107V12.8573C19.7827 12.7164 19.39 12.6108 18.9872 12.5407C18.5845 12.4707 18.1716 12.4352 17.7487 12.4344V8.80941H11.707V2.76774H3.2487V22.1011H10.9216C11.0827 22.5643 11.2841 22.9973 11.5258 23.4C11.7674 23.8028 12.0494 24.1754 12.3716 24.5177H3.2487ZM15.2112 23.9136L13.5195 22.2219L16.057 19.6844L13.5195 17.1469L15.2112 15.4552L17.7487 17.9927L20.2862 15.4552L21.9779 17.1469L19.4706 19.6844L21.9779 22.2219L20.2862 23.9136L17.7487 21.4063L15.2112 23.9136Z" fill="#757575"/>
</svg>
