<svg width="19" height="19" viewBox="0 0 19 19" fill="none" xmlns="http://www.w3.org/2000/svg">
<path d="M2.58984 4.69322C3.28984 3.98322 3.98984 3.34322 4.29984 3.47322C4.79984 3.67322 4.29984 4.50322 3.99984 4.99322C3.74984 5.41322 1.13984 8.88322 1.13984 11.3032C1.13984 12.5832 1.61984 13.6432 2.47984 14.2832C3.22984 14.8432 4.21984 15.0132 5.11984 14.7432C6.18984 14.4332 7.06984 13.3432 8.17984 11.9732C9.38984 10.4832 11.0098 8.53322 12.2598 8.53322C13.8898 8.53322 13.9098 9.54322 14.0198 10.3232C10.2398 10.9632 8.63984 13.9932 8.63984 15.6932C8.63984 17.3932 10.0798 18.7832 11.8498 18.7832C13.4798 18.7832 16.1398 17.4532 16.5398 12.6832H18.9998V10.1832H16.5298C16.3798 8.53322 15.4398 5.98322 12.4998 5.98322C10.2498 5.98322 8.31984 7.89322 7.55984 8.82322C6.97984 9.55322 5.49984 11.3032 5.26984 11.5432C5.01984 11.8432 4.58984 12.3832 4.15984 12.3832C3.70984 12.3832 3.43984 11.5532 3.79984 10.4632C4.14984 9.37322 5.19984 7.60322 5.64984 6.94322C6.42984 5.80322 6.94984 5.02322 6.94984 3.66322C6.94984 1.49322 5.30984 0.803223 4.43984 0.803223C3.11984 0.803223 1.96984 1.80322 1.71984 2.05322C1.35984 2.41322 1.05984 2.71322 0.839844 2.98322L2.58984 4.69322ZM11.8798 16.3532C11.5698 16.3532 11.1398 16.0932 11.1398 15.6332C11.1398 15.0332 11.8698 13.4332 14.0098 12.8732C13.7098 15.5632 12.5798 16.3532 11.8798 16.3532Z" fill="white"/>
</svg>
