<svg width="20" height="18" viewBox="0 0 20 18" fill="none" xmlns="http://www.w3.org/2000/svg">
<path d="M9.46864 2.93198L9.99955 3.46286L10.5299 2.93138L11.35 2.10945L10.8197 1.57912L11.3506 2.10887L11.3504 2.109C13.1605 0.299453 16.0902 0.299603 17.9 2.10944C19.7052 3.9147 19.7044 6.83402 17.9009 8.64854C17.9006 8.64884 17.9003 8.64914 17.9 8.64944L10.0002 16.5446L10 16.5448H9.99998L2.10464 8.64947C2.10463 8.64947 2.10463 8.64947 2.10463 8.64947C0.298452 6.84326 0.298461 3.91487 2.10463 2.10871L2.10463 2.10871C3.9108 0.302531 6.83919 0.302539 8.64532 2.1087L8.64534 2.10873L9.46864 2.93198Z" stroke="#C10D10" stroke-width="1.5"/>
</svg>
