<svg width="25" height="25" viewBox="0 0 25 25" fill="none" xmlns="http://www.w3.org/2000/svg">
<path d="M19.6665 9.89502C18.7165 9.89502 17.8915 9.61169 17.1915 9.04502C16.4915 8.47835 16.0248 7.76169 15.7915 6.89502H9.5165C9.33317 7.59502 8.9875 8.19935 8.4795 8.70802C7.9715 9.21669 7.36717 9.56235 6.6665 9.74502V16.02C7.53317 16.2534 8.24984 16.72 8.8165 17.42C9.38317 18.12 9.6665 18.945 9.6665 19.895C9.6665 20.995 9.27484 21.9367 8.4915 22.72C7.70817 23.5034 6.7665 23.895 5.6665 23.895C4.5665 23.895 3.62484 23.5034 2.8415 22.72C2.05817 21.9367 1.6665 20.995 1.6665 19.895C1.6665 18.945 1.94984 18.12 2.5165 17.42C3.08317 16.72 3.79984 16.2534 4.6665 16.02V9.74502C3.79984 9.51169 3.08317 9.04502 2.5165 8.34502C1.94984 7.64502 1.6665 6.82835 1.6665 5.89502C1.6665 4.79502 2.05817 3.85335 2.8415 3.07002C3.62484 2.28669 4.5665 1.89502 5.6665 1.89502C6.59984 1.89502 7.4165 2.17835 8.1165 2.74502C8.8165 3.31169 9.28317 4.02835 9.5165 4.89502H15.7915C16.0248 4.02835 16.4915 3.31169 17.1915 2.74502C17.8915 2.17835 18.7165 1.89502 19.6665 1.89502C20.7665 1.89502 21.7082 2.28669 22.4915 3.07002C23.2748 3.85335 23.6665 4.79502 23.6665 5.89502C23.6665 6.99502 23.2748 7.93669 22.4915 8.72002C21.7082 9.50335 20.7665 9.89502 19.6665 9.89502ZM5.6665 21.895C6.2165 21.895 6.6875 21.695 7.0795 21.295C7.4715 20.895 7.66717 20.4284 7.6665 19.895C7.6665 19.345 7.47084 18.8744 7.0795 18.483C6.68817 18.0917 6.21717 17.8957 5.6665 17.895C5.13317 17.895 4.6665 18.091 4.2665 18.483C3.8665 18.875 3.6665 19.3457 3.6665 19.895C3.6665 20.4284 3.8665 20.895 4.2665 21.295C4.6665 21.695 5.13317 21.895 5.6665 21.895ZM5.6665 7.89502C6.2165 7.89502 6.6875 7.69935 7.0795 7.30802C7.4715 6.91669 7.66717 6.44569 7.6665 5.89502C7.66584 5.34435 7.47017 4.87369 7.0795 4.48302C6.68884 4.09235 6.21784 3.89635 5.6665 3.89502C5.13317 3.89502 4.6665 4.09102 4.2665 4.48302C3.8665 4.87502 3.6665 5.34569 3.6665 5.89502C3.6665 6.44435 3.8665 6.91535 4.2665 7.30802C4.6665 7.70069 5.13317 7.89635 5.6665 7.89502ZM19.6665 23.895C18.5665 23.895 17.6248 23.5034 16.8415 22.72C16.0582 21.9367 15.6665 20.995 15.6665 19.895C15.6665 18.795 16.0582 17.8534 16.8415 17.07C17.6248 16.2867 18.5665 15.895 19.6665 15.895C20.7665 15.895 21.7082 16.2867 22.4915 17.07C23.2748 17.8534 23.6665 18.795 23.6665 19.895C23.6665 20.995 23.2748 21.9367 22.4915 22.72C21.7082 23.5034 20.7665 23.895 19.6665 23.895ZM19.6665 21.895C20.2165 21.895 20.6875 21.695 21.0795 21.295C21.4715 20.895 21.6672 20.4284 21.6665 19.895C21.6665 19.345 21.4708 18.8744 21.0795 18.483C20.6882 18.0917 20.2172 17.8957 19.6665 17.895C19.1158 17.8944 18.6452 18.0904 18.2545 18.483C17.8638 18.8757 17.6678 19.3464 17.6665 19.895C17.6665 20.4284 17.8625 20.895 18.2545 21.295C18.6465 21.695 19.1172 21.895 19.6665 21.895ZM19.6665 7.89502C20.2165 7.89502 20.6875 7.69935 21.0795 7.30802C21.4715 6.91669 21.6672 6.44569 21.6665 5.89502C21.6658 5.34435 21.4702 4.87369 21.0795 4.48302C20.6888 4.09235 20.2178 3.89635 19.6665 3.89502C19.1152 3.89369 18.6445 4.08969 18.2545 4.48302C17.8645 4.87635 17.6685 5.34702 17.6665 5.89502C17.6645 6.44302 17.8605 6.91402 18.2545 7.30802C18.6485 7.70202 19.1192 7.89769 19.6665 7.89502Z" fill="white"/>
</svg>
