<svg width="24" height="25" viewBox="0 0 24 25" fill="none" xmlns="http://www.w3.org/2000/svg">
<path d="M12.8197 6.07912L11.999 6.90163L11.1757 6.07838C9.07663 3.97931 5.67336 3.97931 3.5743 6.07838C1.47523 8.17744 1.47523 11.5807 3.5743 13.6798L11.4697 21.5751C11.7626 21.868 12.2375 21.868 12.5304 21.5751L20.4318 13.6783C22.5262 11.5723 22.5298 8.17857 20.4304 6.07912C18.3275 3.97623 14.9226 3.97623 12.8197 6.07912ZM19.3682 12.6206L12 19.9842L4.63496 12.6191C3.12167 11.1058 3.12167 8.65232 4.63496 7.13904C6.14824 5.62575 8.60175 5.62575 10.1151 7.13904L11.4725 8.49648C11.7704 8.79435 12.2551 8.78854 12.5457 8.48363L13.8804 7.13978C15.3975 5.62268 17.8526 5.62268 19.3697 7.13978C20.8834 8.65343 20.8808 11.0997 19.3682 12.6206Z" fill="#C10D10"/>
</svg>
