<svg width="14" height="14" viewBox="0 0 14 14" fill="none" xmlns="http://www.w3.org/2000/svg">
<path d="M7.71094 13.5H6.28906C6.24422 13.445 6.17641 13.4537 6.11461 13.4466C5.68914 13.4002 5.26914 13.3234 4.86609 13.1915C2.37289 12.3787 0.798984 10.788 0.161328 8.40431C0.09625 8.1605 0.115391 7.90243 0 7.66931V6.35097C0.100625 6.1489 0.0847656 5.92544 0.134531 5.7142C0.466484 4.30171 1.18727 3.0923 2.37453 2.14962C4.36242 0.570673 6.64781 0.103912 9.12953 0.841466C11.6446 1.5892 13.201 3.23228 13.8387 5.61597C13.9038 5.85978 13.8846 6.11785 14 6.35097V7.66931C13.9404 7.71105 13.9497 7.77365 13.9426 7.83117C13.8923 8.22565 13.8097 8.61504 13.6675 8.98866C12.7909 11.3001 11.0748 12.7589 8.50336 13.3504C8.24086 13.4109 7.96195 13.3931 7.71039 13.5H7.71094ZM5.23742 6.61871C5.62023 6.61871 6.0025 6.61515 6.38531 6.62075C6.52039 6.62279 6.58219 6.5897 6.58055 6.45176C6.57398 5.92799 6.57508 5.40473 6.58055 4.88096C6.58164 4.75574 6.54117 4.69262 6.39789 4.6911C5.73289 4.68499 5.07062 4.63307 4.41 4.57046C4.28367 4.55876 4.22242 4.58217 4.18906 4.71706C4.04961 5.28664 3.98727 5.86487 3.93695 6.44514C3.92547 6.57799 3.9725 6.62431 4.11742 6.62126C4.49094 6.61413 4.86445 6.61871 5.23797 6.61871H5.23742ZM8.7232 6.61871C9.10547 6.61871 9.48773 6.61617 9.86945 6.62024C9.99687 6.62177 10.0767 6.60497 10.0636 6.45736C10.0116 5.86945 9.95312 5.28307 9.80766 4.70637C9.78141 4.60304 9.74203 4.56181 9.62938 4.57606C8.95234 4.65954 8.27039 4.6743 7.58898 4.69975C7.46047 4.70433 7.41945 4.75778 7.42055 4.87332C7.42492 5.39607 7.42766 5.91933 7.41945 6.44209C7.41672 6.59632 7.48945 6.62329 7.63219 6.62075C7.99586 6.61464 8.36008 6.61871 8.72375 6.61871H8.7232ZM1.96602 6.61871C2.275 6.61871 2.58453 6.61261 2.89297 6.62126C3.05102 6.62533 3.11937 6.58512 3.12102 6.42529C3.12867 5.80888 3.22656 5.20163 3.37094 4.60151C3.40375 4.4651 3.36438 4.43252 3.22766 4.40503C2.76719 4.3129 2.30945 4.20907 1.85281 4.10217C1.76531 4.08181 1.70406 4.06349 1.64992 4.15358C1.21734 4.87536 0.939531 5.64142 0.865156 6.46805C0.852578 6.60446 0.923125 6.62024 1.03906 6.61922C1.34805 6.61617 1.65703 6.6182 1.96602 6.6182V6.61871ZM12.0214 6.61871C12.3216 6.61871 12.6224 6.60955 12.9221 6.62228C13.1108 6.63042 13.1502 6.56476 13.1316 6.40289C13.0435 5.63073 12.7952 4.90743 12.3916 4.22739C12.3397 4.13933 12.2872 4.10574 12.1767 4.13628C11.7152 4.26302 11.2459 4.36126 10.7696 4.42692C10.6247 4.44677 10.6094 4.50582 10.6389 4.63562C10.7751 5.22963 10.8746 5.82924 10.879 6.43801C10.8801 6.58665 10.9462 6.62431 11.0928 6.62126C11.4018 6.61413 11.7119 6.61922 12.0209 6.61922L12.0214 6.61871ZM13.1387 7.54409C13.1748 7.42396 13.0834 7.39902 12.9391 7.40004C12.3205 7.40411 11.7015 7.40564 11.083 7.39953C10.9282 7.39801 10.8806 7.44891 10.8784 7.5899C10.8686 8.19002 10.7751 8.782 10.6291 9.36481C10.5897 9.52261 10.6548 9.55875 10.7877 9.58063C11.253 9.65597 11.7119 9.75471 12.1636 9.88349C12.2637 9.912 12.3271 9.90436 12.3851 9.80714C12.7991 9.11285 13.0512 8.37276 13.1387 7.5446V7.54409ZM8.7407 7.40157C8.36828 7.40157 7.99531 7.40666 7.62289 7.39902C7.46977 7.39597 7.41727 7.4428 7.41945 7.58634C7.42656 8.09178 7.42656 8.59774 7.41945 9.10318C7.41727 9.24672 7.47359 9.29661 7.62453 9.29406C8.28023 9.28286 8.93047 9.35667 9.5818 9.41164C9.73438 9.42437 9.77922 9.3867 9.81313 9.25232C9.95203 8.70107 10.004 8.14014 10.062 7.5787C10.0784 7.41887 10.0007 7.39801 9.85906 7.40055C9.48664 7.40666 9.11367 7.40259 8.74125 7.40259L8.7407 7.40157ZM1.99719 7.40157C1.69695 7.40157 1.39617 7.41175 1.09648 7.39801C0.900156 7.38884 0.847656 7.44789 0.868438 7.62604C0.957031 8.38039 1.20039 9.0874 1.5843 9.75675C1.65594 9.88146 1.74563 9.8723 1.85336 9.84125C2.28813 9.71756 2.73273 9.63153 3.17953 9.5618C3.35617 9.53431 3.39992 9.49817 3.35836 9.32308C3.22383 8.75502 3.13195 8.17933 3.12266 7.59652C3.12047 7.43822 3.05813 7.39393 2.89789 7.39902C2.59766 7.40768 2.29742 7.40157 1.99719 7.40157ZM5.25875 7.40157C4.88578 7.40157 4.51281 7.40564 4.13984 7.39953C3.99547 7.39699 3.92273 7.42295 3.93805 7.57972C3.99164 8.13352 4.05453 8.68529 4.17922 9.23094C4.21422 9.38517 4.28859 9.41266 4.43734 9.39892C5.08867 9.33835 5.74055 9.28185 6.3968 9.2905C6.54391 9.29253 6.58055 9.22891 6.57945 9.10522C6.57508 8.59927 6.57344 8.09331 6.58055 7.58736C6.58273 7.44432 6.53133 7.39648 6.37766 7.39953C6.00469 7.40768 5.63172 7.40208 5.25875 7.40208V7.40157ZM7.42219 2.64896C7.42219 3.01137 7.42656 3.37378 7.42 3.73569C7.41727 3.86956 7.44789 3.93013 7.61414 3.92758C8.19602 3.91944 8.77516 3.88076 9.3543 3.82985C9.51508 3.8156 9.52273 3.77488 9.47242 3.64559C9.27938 3.15186 9.01742 2.69171 8.69148 2.26516C8.42078 1.91089 8.08828 1.61567 7.65789 1.4253C7.48891 1.35047 7.41289 1.36218 7.41891 1.56222C7.43094 1.92413 7.42219 2.28654 7.42219 2.64896ZM6.57781 11.3342C6.57781 10.9718 6.5707 10.6088 6.58109 10.2464C6.58547 10.0927 6.5357 10.0372 6.36617 10.0489C5.78594 10.0881 5.20516 10.1222 4.62437 10.1492C4.45375 10.1568 4.4882 10.223 4.52758 10.3243C4.74359 10.8837 5.04438 11.4008 5.44031 11.8671C5.67875 12.1471 5.96586 12.3781 6.31531 12.5395C6.49195 12.6209 6.59422 12.6393 6.58273 12.397C6.56578 12.0437 6.57836 11.6889 6.57836 11.3347L6.57781 11.3342ZM6.57781 2.65455C6.57781 2.35933 6.58383 2.0636 6.57508 1.76837C6.57125 1.6401 6.65 1.45686 6.52039 1.3973C6.38531 1.3352 6.23219 1.46856 6.10859 1.54644C5.27625 2.06919 4.86062 2.86172 4.50953 3.69446C4.46961 3.78964 4.51336 3.81153 4.60523 3.81713C5.19477 3.85581 5.7832 3.91486 6.37547 3.92555C6.55922 3.9286 6.58383 3.85887 6.58109 3.71787C6.57344 3.3636 6.57891 3.00882 6.57891 2.65455H6.57781ZM7.42219 11.3301C7.42219 11.5999 7.4118 11.8702 7.42602 12.1394C7.43422 12.2911 7.32977 12.5141 7.48289 12.5787C7.63383 12.6423 7.81539 12.483 7.96086 12.3853C8.73906 11.863 9.14266 11.1046 9.48117 10.3044C9.54023 10.1645 9.44563 10.1645 9.35266 10.1584C8.78117 10.1217 8.20969 10.0907 7.63875 10.0499C7.47578 10.0382 7.41289 10.08 7.41781 10.2418C7.42984 10.6042 7.42164 10.9672 7.42164 11.3296L7.42219 11.3301ZM4.69055 12.2784C4.24156 11.6869 3.91508 11.0471 3.66516 10.3721C3.64 10.3044 3.59789 10.28 3.52188 10.2907C3.07508 10.3538 2.63211 10.4312 2.17 10.5651C2.85906 11.354 3.67609 11.9333 4.69 12.2784H4.69055ZM11.8081 10.59C11.3903 10.4729 10.9993 10.4068 10.6121 10.3258C10.4141 10.2841 10.3398 10.336 10.2791 10.5024C10.0614 11.1051 9.75789 11.6686 9.34609 12.1796C9.32258 12.2086 9.27883 12.2427 9.34883 12.2992C10.3086 11.9317 11.1202 11.3723 11.8076 10.59H11.8081ZM11.8081 3.43181C11.1256 2.65354 10.3206 2.09515 9.34336 1.74394C9.77484 2.32472 10.0953 2.94978 10.3365 3.61047C10.3715 3.70566 10.4311 3.70769 10.5257 3.69191C10.9435 3.62116 11.3608 3.54888 11.8076 3.43181H11.8081ZM2.22469 3.3916C2.65016 3.52598 3.06141 3.59062 3.46992 3.66443C3.56289 3.68122 3.63781 3.67715 3.67937 3.56517C3.92055 2.92229 4.23172 2.31046 4.65609 1.74343C3.69852 2.09057 2.90227 2.63368 2.22469 3.3916Z" fill="#6D6E70"/>
</svg>
