<svg width="44" height="42" viewBox="0 0 44 42" fill="none" xmlns="http://www.w3.org/2000/svg">
<g filter="url(#filter0_ii_3006_2367)">
<path d="M20.0391 1.4931C20.9272 -0.30611 23.4929 -0.306111 24.381 1.4931L29.1282 11.1104C29.4806 11.8243 30.1613 12.3193 30.949 12.4344L41.5689 13.9867C43.554 14.2768 44.3451 16.7168 42.908 18.1165L35.2273 25.5975C34.6562 26.1538 34.3956 26.9554 34.5303 27.7411L36.3425 38.3069C36.6817 40.2848 34.6056 41.793 32.8295 40.8589L23.3369 35.8669C22.6315 35.4959 21.7886 35.4959 21.0832 35.8669L11.5906 40.8589C9.81451 41.793 7.73838 40.2848 8.07761 38.3069L9.88977 27.7411C10.0245 26.9554 9.76387 26.1538 9.19282 25.5975L1.5121 18.1165C0.0750079 16.7168 0.866152 14.2768 2.85117 13.9867L13.4711 12.4344C14.2588 12.3193 14.9395 11.8243 15.2919 11.1105L20.0391 1.4931Z" fill="url(#paint0_linear_3006_2367)"/>
</g>
<defs>
<filter id="filter0_ii_3006_2367" x="0.777344" y="-2.27733" width="42.8652" height="43.4199" filterUnits="userSpaceOnUse" color-interpolation-filters="sRGB">
<feFlood flood-opacity="0" result="BackgroundImageFix"/>
<feBlend mode="normal" in="SourceGraphic" in2="BackgroundImageFix" result="shape"/>
<feColorMatrix in="SourceAlpha" type="matrix" values="0 0 0 0 0 0 0 0 0 0 0 0 0 0 0 0 0 0 127 0" result="hardAlpha"/>
<feOffset dy="-2.42101"/>
<feGaussianBlur stdDeviation="2.42101"/>
<feComposite in2="hardAlpha" operator="arithmetic" k2="-1" k3="1"/>
<feColorMatrix type="matrix" values="0 0 0 0 0.549971 0 0 0 0 0.304646 0 0 0 0 0.0781912 0 0 0 0.57 0"/>
<feBlend mode="normal" in2="shape" result="effect1_innerShadow_3006_2367"/>
<feColorMatrix in="SourceAlpha" type="matrix" values="0 0 0 0 0 0 0 0 0 0 0 0 0 0 0 0 0 0 127 0" result="hardAlpha"/>
<feOffset dy="-2.42101"/>
<feGaussianBlur stdDeviation="1.2105"/>
<feComposite in2="hardAlpha" operator="arithmetic" k2="-1" k3="1"/>
<feColorMatrix type="matrix" values="0 0 0 0 1 0 0 0 0 0.981301 0 0 0 0 0.813007 0 0 0 0.72 0"/>
<feBlend mode="normal" in2="effect1_innerShadow_3006_2367" result="effect2_innerShadow_3006_2367"/>
</filter>
<linearGradient id="paint0_linear_3006_2367" x1="12.5605" y1="2.22417" x2="23.097" y2="40.0635" gradientUnits="userSpaceOnUse">
<stop offset="0.0001" stop-color="#FFED8C"/>
<stop offset="1" stop-color="#F4B335"/>
</linearGradient>
</defs>
</svg>
