<svg width="27" height="25" viewBox="0 0 27 25" fill="none" xmlns="http://www.w3.org/2000/svg">
<path d="M7.50811 17.3685H8.69062L15.9757 10.8238L14.7932 9.76143L7.50811 16.3062V17.3685ZM19.5866 9.72349L15.9968 6.53649L17.1793 5.47416C17.5031 5.18328 17.901 5.03784 18.3728 5.03784C18.8447 5.03784 19.2423 5.18328 19.5655 5.47416L20.748 6.53649C21.0718 6.82737 21.2407 7.17844 21.2548 7.58972C21.2689 8.00099 21.114 8.35182 20.7902 8.64219L19.5866 9.72349ZM18.3619 10.8427L9.40857 18.8861H5.81881V15.6612L14.7721 7.61779L18.3619 10.8427ZM15.3845 10.2926L14.7932 9.76143L15.9757 10.8238L15.3845 10.2926Z" fill="#C10D10"/>
<rect x="0.5" y="0.5" width="25.8416" height="23.1138" rx="4.5" stroke="#C10D10"/>
</svg>
