<svg width="55" height="76" viewBox="0 0 55 76" fill="none" xmlns="http://www.w3.org/2000/svg">
<path d="M22.7737 23.2542C21.2469 24.7049 18.9455 24.5686 17.4968 23.0356C16.1218 21.5885 16.1068 19.2788 17.6336 17.8317C19.0884 16.4567 21.4618 16.5174 22.8397 17.9693C24.2903 19.4975 24.2231 21.8756 22.7737 23.2542ZM35.9513 37.152C34.4263 38.5991 32.1213 38.4622 30.7398 37.0121C29.2965 35.4827 29.3577 33.2589 30.8833 31.8046C32.3327 30.429 34.6376 30.4158 36.084 31.9416C37.4625 33.3952 37.4013 35.7728 35.9513 37.152Z" fill="white"/>
<path d="M30.2058 30.507C28.3902 32.2316 25.644 32.064 24.0127 30.343C22.2859 28.5271 22.2787 25.7825 24.0913 24.0615C25.8151 22.4228 28.646 22.4979 30.3631 24.315C32.0016 26.0426 31.926 28.8689 30.2058 30.507Z" fill="white"/>
<path d="M16.5783 29.5663C15.4363 30.6482 13.5763 30.5316 12.4901 29.3855C11.404 28.2358 11.4538 26.4529 12.6012 25.368C13.745 24.2802 15.602 24.2531 16.6876 25.3993C17.7755 26.5448 17.7256 28.4785 16.5783 29.5663Z" fill="white"/>
<path d="M28.0858 41.7053C26.9438 42.7938 25.1588 42.7451 24.0745 41.6026C22.9854 40.457 22.9614 38.5919 24.1087 37.5076C25.2507 36.4167 27.1864 36.4744 28.2707 37.6175C29.3574 38.7631 29.2314 40.621 28.0858 41.7053Z" fill="white"/>
<path d="M13.8129 6.06578C13.3085 5.53536 13.3307 4.64212 13.9408 4.06064C14.4745 3.55425 15.3667 3.57467 15.8764 4.1087C16.4564 4.72441 16.4342 5.61045 15.8957 6.12044C15.2881 6.70192 14.3959 6.67789 13.8129 6.06578Z" fill="white"/>
<path d="M3.95177 15.3135C3.44563 14.7795 3.47144 13.8935 4.0046 13.3835C4.61821 12.8014 5.50561 12.826 6.01535 13.3564C6.59293 13.9691 6.57072 14.8618 5.95891 15.4433C5.42395 15.9497 4.53176 15.9298 3.95177 15.3135Z" fill="white"/>
<path d="M0.578389 10.6431C0.164712 10.2088 0.185126 9.48373 0.617415 9.06985C1.11695 8.5941 1.84344 8.61091 2.25591 9.05243C2.72963 9.54861 2.70862 10.2706 2.20968 10.7428C1.77679 11.1567 1.05031 11.1429 0.578389 10.6431Z" fill="white"/>
<path d="M9.51313 1.92577C9.09765 1.48786 9.11807 0.765819 9.55396 0.348333C10.0499 -0.123817 10.7764 -0.102793 11.1901 0.331513C11.662 0.831295 11.6416 1.55634 11.1438 2.02849C10.7103 2.44237 9.98385 2.42555 9.51313 1.92577Z" fill="white"/>
<path d="M2.78764 3.72843C2.2797 3.19141 2.30551 2.29817 2.83567 1.78877C3.36943 1.28599 4.26523 1.31002 4.77617 1.84704C5.34895 2.45255 5.32554 3.34879 4.79178 3.85518C4.25802 4.36157 3.36582 4.33454 2.78764 3.72843Z" fill="white"/>
<path d="M18.3933 11.382C17.5233 10.4683 17.6392 9.05906 18.481 8.26193C19.3954 7.39332 20.7313 7.42695 21.5995 8.34122C22.3962 9.1858 22.3602 10.5236 21.4494 11.3892C20.6058 12.1929 19.1918 12.2271 18.3933 11.382Z" fill="white"/>
<path d="M7.93675 21.3043C7.06977 20.3906 7.10579 19.0493 8.01901 18.1837C8.86017 17.3907 10.2723 17.3493 11.1411 18.266C11.936 19.1081 11.8286 20.521 10.9874 21.3145C10.0712 22.1831 8.73409 22.1489 7.93675 21.3043Z" fill="white"/>
<path d="M6.8049 9.49703C6.00816 8.65605 6.12104 7.2426 6.9568 6.44547C7.87361 5.57686 9.21191 5.6141 10.0074 6.45628C10.8798 7.36995 10.8456 8.71071 9.92699 9.57932C9.08762 10.3765 7.67548 10.4143 6.8049 9.49703Z" fill="white"/>
<path d="M12.0615 15.9599C10.9808 14.8173 11.1021 12.9624 12.2446 11.8709C13.3956 10.783 15.1806 10.8341 16.2625 11.9808C17.3498 13.1233 17.3769 14.9849 16.2283 16.0728C15.0821 17.1607 13.1506 17.1066 12.0615 15.9599Z" fill="white"/>
<path d="M47.7757 40.6037C48.2987 41.1239 49.1909 41.1167 49.7793 40.5184C50.2992 39.9946 50.292 39.1019 49.7691 38.5847C49.1669 37.993 48.2813 37.9966 47.7613 38.5228C47.1735 39.1187 47.1735 40.0084 47.7757 40.6037Z" fill="white"/>
<path d="M38.3237 50.2755C38.8509 50.7921 39.7395 50.7885 40.26 50.2653C40.8544 49.6628 40.8478 48.7737 40.3279 48.2529C39.7263 47.6648 38.8305 47.6715 38.2415 48.2667C37.7221 48.7912 37.7293 49.6838 38.3237 50.2755Z" fill="white"/>
<path d="M42.9234 53.7488C43.3509 54.1693 44.0756 54.1657 44.5001 53.7416C44.9858 53.2556 44.9786 52.5276 44.5511 52.1059C44.0624 51.6235 43.3377 51.6235 42.8514 52.1131C42.4341 52.5408 42.4341 53.2664 42.9234 53.7488Z" fill="white"/>
<path d="M51.8208 44.9966C52.2483 45.4141 52.9772 45.4141 53.3975 44.9834C53.8832 44.4968 53.8766 43.7688 53.4521 43.3477C52.9634 42.8617 52.2351 42.8683 51.753 43.3609C51.3321 43.7856 51.3321 44.5142 51.8208 44.9966Z" fill="white"/>
<path d="M49.8758 51.6854C50.406 52.1984 51.2982 52.1954 51.8175 51.6722C52.3339 51.152 52.3303 50.2521 51.8043 49.7355C51.2093 49.1468 50.3135 49.1498 49.7936 49.6737C49.2772 50.1969 49.288 51.0937 49.8758 51.6854Z" fill="white"/>
<path d="M42.5581 35.9128C43.4503 36.8024 44.863 36.7171 45.6766 35.896C46.5652 34.9997 46.5586 33.662 45.6628 32.776C44.8354 31.9584 43.4989 31.965 42.6127 32.8619C41.7986 33.686 41.7301 35.1025 42.5581 35.9128Z" fill="white"/>
<path d="M32.4219 46.1667C33.3177 47.0558 34.6548 47.0462 35.5476 46.1493C36.3581 45.3216 36.423 43.9153 35.5272 43.0263C34.6992 42.2123 33.2901 42.2874 32.4765 43.1146C31.5945 44.0144 31.6011 45.3528 32.4219 46.1667Z" fill="white"/>
<path d="M44.2023 47.5424C45.023 48.3599 46.4388 48.2746 47.2493 47.4541C48.1415 46.5506 48.1313 45.2159 47.3075 44.4019C46.4117 43.5159 45.0704 43.5189 44.1855 44.4187C43.3677 45.2393 43.3029 46.6593 44.2023 47.5424Z" fill="white"/>
<path d="M37.8451 42.1469C38.9667 43.2588 40.8273 43.1729 41.9417 42.0508C43.05 40.9287 43.0356 39.1428 41.914 38.0315C40.7925 36.919 38.9324 36.8541 37.8241 37.9798C36.7098 39.1055 36.7236 41.038 37.8451 42.1469Z" fill="white"/>
<path d="M29.1111 17.4959C30.2398 16.3906 30.1918 14.5267 29.0907 13.401C27.9829 12.2716 26.2015 12.2518 25.0728 13.3571C23.9428 14.4588 23.8467 16.3162 24.9497 17.4455C26.0544 18.5742 27.9895 18.5976 29.1111 17.4959Z" fill="white"/>
<path d="M40.8002 29.4643C41.929 28.3626 41.9524 26.5737 40.8549 25.4468C39.7471 24.3145 37.8871 24.222 36.7583 25.3237C35.6302 26.4253 35.6098 28.3626 36.7109 29.4913C37.8114 30.6206 39.6715 30.5696 40.8002 29.4643Z" fill="white"/>
<path d="M30.7944 22.7821C29.348 21.2527 29.4807 18.9472 31.0129 17.5031C32.4629 16.1281 34.7678 16.1143 36.2178 17.6407C37.5855 19.0908 37.5243 21.4726 36.0743 22.844C34.5493 24.294 32.1759 24.2292 30.7944 22.7821ZM16.9041 35.9608C15.4589 34.4351 15.5958 32.129 17.0458 30.757C18.5708 29.3069 20.8019 29.3645 22.247 30.8909C23.6232 32.3416 23.637 34.6507 22.1119 36.0978C20.6584 37.477 18.2814 37.4151 16.9041 35.9608Z" fill="white"/>
<path d="M47.9743 13.8149C48.5081 13.3085 49.4039 13.3355 49.9785 13.941C50.4846 14.4786 50.457 15.3683 49.9304 15.8747C49.318 16.4603 48.4258 16.4357 47.9197 15.8987C47.3379 15.289 47.3655 14.3963 47.9743 13.8149Z" fill="white"/>
<path d="M38.7285 3.95432C39.2616 3.44793 40.158 3.46835 40.6642 4.00237C41.2454 4.61509 41.2183 5.50052 40.6846 6.01472C40.0758 6.59619 39.18 6.56856 38.6018 5.95945C38.0957 5.41822 38.1197 4.53279 38.7285 3.95432Z" fill="white"/>
<path d="M43.3999 0.574185C43.8339 0.160302 44.5622 0.180726 44.9759 0.615032C45.4478 1.11481 45.431 1.83686 44.9897 2.25074C44.4974 2.72649 43.7721 2.70246 43.2972 2.20629C42.8835 1.76838 42.9039 1.04633 43.3999 0.574185Z" fill="white"/>
<path d="M52.1126 9.51079C52.5503 9.09991 53.2756 9.11793 53.6893 9.55164C54.1576 10.0514 54.1408 10.7801 53.7061 11.1909C53.2065 11.6625 52.4819 11.6427 52.0099 11.1465C51.5993 10.7116 51.6137 9.98294 52.1126 9.51079Z" fill="white"/>
<path d="M50.3139 2.78481C50.8477 2.27482 51.7398 2.29885 52.2466 2.83287C52.7563 3.36689 52.7287 4.26314 52.195 4.76953C51.5861 5.3444 50.6903 5.32397 50.1842 4.78995C49.6811 4.25893 49.7051 3.36269 50.3139 2.78481Z" fill="white"/>
<path d="M42.6604 18.3957C43.57 17.5307 44.9858 17.643 45.7825 18.4846C46.6471 19.3983 46.6135 20.7324 45.6967 21.6046C44.8585 22.4018 43.5214 22.3645 42.6496 21.4503C41.8535 20.6129 41.8193 19.1928 42.6604 18.3957Z" fill="white"/>
<path d="M32.7437 7.93695C33.6569 7.07194 34.994 7.10198 35.8658 8.01925C36.6625 8.86083 36.6968 10.2707 35.78 11.1429C34.9394 11.94 33.5302 11.8307 32.7335 10.9891C31.8683 10.0718 31.9026 8.73408 32.7437 7.93695Z" fill="white"/>
<path d="M44.5405 6.80407C45.3853 6.00393 46.7981 6.11987 47.5984 6.95845C48.4666 7.87211 48.4257 9.21287 47.5876 10.0106C46.6678 10.8792 45.3307 10.8486 44.4655 9.92831C43.6688 9.08973 43.6315 7.67328 44.5405 6.80407Z" fill="white"/>
<path d="M38.0809 12.0662C39.2264 10.9855 41.0835 11.1051 42.1708 12.2482C43.2551 13.398 43.2035 15.1802 42.0609 16.2651C40.9154 17.3536 39.0583 17.38 37.971 16.2339C36.8879 15.0871 36.9389 13.1547 38.0809 12.0662Z" fill="white"/>
<path d="M13.4522 47.7923C12.9323 48.3191 12.9407 49.2117 13.5363 49.8004C14.0628 50.3206 14.9556 50.317 15.4738 49.7902C16.067 49.1913 16.0604 48.2987 15.5368 47.7815C14.9382 47.1928 14.049 47.1928 13.4522 47.7923Z" fill="white"/>
<path d="M3.78429 38.342C3.27155 38.8659 3.27155 39.7585 3.7975 40.2757C4.3979 40.8704 5.2865 40.8638 5.80824 40.34C6.39964 39.7417 6.38943 38.8484 5.79624 38.2531C5.27028 37.7329 4.37809 37.7437 3.78429 38.342Z" fill="white"/>
<path d="M0.313196 42.9404C-0.107085 43.3717 -0.104083 44.0931 0.320401 44.5172C0.810929 45.0038 1.53922 44.9966 1.9583 44.5689C2.44582 44.0829 2.43862 43.3549 1.94809 42.8719C1.52241 42.4514 0.795319 42.455 0.313196 42.9404Z" fill="white"/>
<path d="M9.0659 51.8464C8.64502 52.2741 8.64682 52.9961 9.07431 53.4202C9.56183 53.9026 10.2883 53.8996 10.7104 53.4749C11.1907 52.9823 11.1907 52.2572 10.6984 51.7785C10.2733 51.3532 9.54802 51.3532 9.0659 51.8464Z" fill="white"/>
<path d="M2.37954 49.9025C1.86499 50.4263 1.86499 51.319 2.39155 51.8422C2.91269 52.3552 3.80849 52.3522 4.32844 51.8254C4.91143 51.2301 4.90963 50.3338 4.39028 49.8136C3.86493 49.3006 2.97093 49.3078 2.37954 49.9025Z" fill="white"/>
<path d="M18.1419 42.571C17.2545 43.4672 17.3367 44.8807 18.1593 45.6946C19.0599 46.5836 20.3958 46.577 21.2814 45.6808C22.0985 44.853 22.0901 43.5159 21.1925 42.6292C20.3711 41.8111 18.9542 41.7462 18.1419 42.571Z" fill="white"/>
<path d="M7.89305 32.4336C7.00566 33.3334 7.01587 34.6712 7.90986 35.5572C8.73722 36.3711 10.1464 36.4366 11.032 35.5404C11.8455 34.7156 11.7704 33.3022 10.9461 32.4882C10.0491 31.6022 8.7066 31.6088 7.89305 32.4336Z" fill="white"/>
<path d="M6.52025 44.2163C5.70131 45.041 5.78656 46.4569 6.60791 47.2714C7.50551 48.158 8.84261 48.1508 9.65856 47.3303C10.549 46.4232 10.5423 45.0891 9.64295 44.1994C8.81979 43.3885 7.40405 43.32 6.52025 44.2163Z" fill="white"/>
<path d="M11.908 37.8597C10.8003 38.9854 10.8855 40.847 12.0071 41.9546C13.1304 43.0695 14.9172 43.0527 16.0219 41.9306C17.1333 40.8085 17.1999 38.9475 16.0784 37.8387C14.9532 36.7274 13.0193 36.7412 11.908 37.8597Z" fill="white"/>
<path d="M11.3822 72.9177H17.767V75.5829H7.20508V73.3326L13.1649 67.2454C14.1288 66.2706 14.4605 65.4202 14.4605 64.6633C14.4605 63.4915 13.7246 62.7656 12.4186 62.7656C11.1852 62.7656 10.2938 63.3981 10.2938 65.1818V66.2914L7.31907 65.9907V65.244C7.31907 62.0812 9.32984 60.3701 12.3979 60.3701C15.2793 60.3701 17.4042 61.936 17.4042 64.6841C17.4042 66.2292 16.7409 67.3803 15.4348 68.7388L11.3822 72.9177ZM27.2613 75.7903C22.9391 75.7903 19.7571 72.8037 19.7571 68.1268C19.7571 63.3876 23.0117 60.3907 27.4168 60.3907C30.3086 60.3907 32.703 61.6662 34.0089 63.9165L31.2829 65.3683C30.4951 63.8335 29.0855 63.0972 27.4167 63.0972C24.8255 63.0972 22.8769 64.8809 22.8769 68.0542C22.8769 71.1134 24.7012 73.0836 27.5308 73.0836C29.4483 73.0836 31.2104 72.1296 31.6353 69.9415H27.5412V67.4423H34.5791V75.5828H32.1329V73.5088C31.169 74.9295 29.552 75.7903 27.2613 75.7903ZM42.2283 60.4009C45.3274 60.4009 47.732 62.6409 47.732 65.6171C47.732 66.7889 47.3485 67.9711 46.3949 69.2674L41.7307 75.5828H38.3311L42.2075 70.5118C41.9795 70.5429 41.7618 70.5533 41.5338 70.5533C38.9943 70.5533 36.6934 68.6244 36.683 65.6275C36.6623 62.5579 39.2536 60.4009 42.2283 60.4009ZM44.9232 65.7313C44.9543 64.1655 43.9386 63.087 42.3113 63.087C40.7358 63.087 39.6061 64.1552 39.5957 65.7002C39.575 67.2557 40.6529 68.3861 42.2802 68.3861C43.866 68.3861 44.9025 67.2246 44.9232 65.7313Z" fill="white"/>
</svg>
