<svg width="566" height="471" viewBox="0 0 566 471" fill="none" xmlns="http://www.w3.org/2000/svg">
<g opacity="0.17">
<path d="M29.441 318.888L44.5723 330.959C44.7352 331.089 44.9274 331.178 45.1323 331.217C45.3372 331.257 45.5487 331.246 45.7487 331.187L64.3225 325.626C64.5526 325.557 64.7974 325.554 65.0293 325.616C65.2611 325.679 65.4709 325.804 65.6348 325.979C65.7987 326.154 65.9102 326.37 65.9568 326.605C66.0034 326.839 65.9833 327.082 65.8985 327.305L59.0313 345.349C58.9573 345.544 58.932 345.753 58.9575 345.959C58.983 346.166 59.0585 346.363 59.1776 346.534L70.2293 362.39C70.3665 362.586 70.4456 362.817 70.4577 363.056C70.4698 363.295 70.4144 363.533 70.2978 363.742C70.1812 363.951 70.008 364.124 69.7979 364.241C69.5878 364.357 69.349 364.413 69.1087 364.401L49.7334 363.482C49.525 363.473 49.3174 363.513 49.1283 363.601C48.9392 363.689 48.7743 363.821 48.6477 363.986L36.9025 379.339C36.757 379.529 36.5608 379.675 36.3362 379.76C36.1116 379.845 35.8675 379.867 35.6315 379.821C35.3955 379.775 35.177 379.665 35.0007 379.503C34.8244 379.34 34.6973 379.132 34.6339 378.901L29.5257 360.288C29.4709 360.087 29.3678 359.903 29.2253 359.751C29.0827 359.599 28.9051 359.484 28.7077 359.415L10.407 353.054C10.1804 352.975 9.98049 352.834 9.82992 352.648C9.67935 352.462 9.58409 352.238 9.5549 352.001C9.52572 351.763 9.56377 351.523 9.66475 351.306C9.76572 351.089 9.9256 350.905 10.1264 350.774L26.3483 340.196C26.5229 340.082 26.667 339.928 26.7682 339.746C26.8694 339.564 26.9247 339.361 26.9293 339.153L27.3588 319.865C27.3644 319.628 27.4364 319.396 27.5667 319.197C27.697 318.998 27.8804 318.839 28.0965 318.737C28.3126 318.636 28.5529 318.596 28.7903 318.623C29.0278 318.65 29.2531 318.741 29.441 318.888Z" fill="#39CE8A"/>
<path d="M415.582 354.561L426.127 362.972C426.24 363.062 426.374 363.124 426.517 363.151C426.66 363.179 426.808 363.171 426.947 363.13L439.892 359.259C440.052 359.21 440.223 359.208 440.385 359.251C440.547 359.295 440.693 359.382 440.807 359.504C440.922 359.626 441 359.778 441.032 359.941C441.064 360.105 441.05 360.274 440.99 360.43L436.205 373.003C436.154 373.139 436.136 373.285 436.154 373.428C436.172 373.572 436.225 373.709 436.308 373.828L444.011 384.882C444.106 385.019 444.161 385.179 444.17 385.346C444.178 385.512 444.139 385.678 444.058 385.824C443.977 385.969 443.856 386.09 443.709 386.171C443.563 386.252 443.397 386.29 443.229 386.282L429.728 385.641C429.583 385.634 429.439 385.663 429.307 385.724C429.175 385.785 429.06 385.877 428.972 385.992L420.788 396.691C420.686 396.824 420.55 396.926 420.393 396.985C420.236 397.045 420.066 397.059 419.902 397.028C419.737 396.996 419.585 396.919 419.462 396.805C419.339 396.692 419.251 396.547 419.207 396.386L415.645 383.412C415.607 383.272 415.535 383.144 415.436 383.038C415.337 382.932 415.213 382.851 415.075 382.804L402.316 378.368C402.158 378.313 402.018 378.215 401.913 378.085C401.808 377.955 401.741 377.799 401.721 377.633C401.7 377.468 401.727 377.3 401.798 377.149C401.868 376.997 401.98 376.869 402.12 376.777L413.422 369.403C413.544 369.323 413.645 369.216 413.715 369.089C413.786 368.963 413.825 368.821 413.828 368.676L414.129 355.235C414.134 355.069 414.184 354.908 414.276 354.77C414.367 354.631 414.495 354.521 414.646 354.451C414.797 354.381 414.965 354.354 415.13 354.374C415.295 354.393 415.452 354.458 415.582 354.561Z" fill="#39CE8A"/>
<path d="M552.661 417.773C560.028 414.356 563.215 405.646 559.78 398.318C556.345 390.991 547.588 387.821 540.221 391.238C532.854 394.654 529.667 403.364 533.102 410.692C536.537 418.019 545.294 421.19 552.661 417.773Z" fill="#39CE8A"/>
<path d="M420.839 32.722C428.206 29.3051 431.393 20.5951 427.958 13.2676C424.523 5.94005 415.766 2.76985 408.399 6.18673C401.032 9.60361 397.845 18.3137 401.28 25.6412C404.715 32.9687 413.472 36.1389 420.839 32.722Z" fill="#39CE8A"/>
<path d="M46.8022 156.62C54.1691 153.204 57.3564 144.494 53.9211 137.166C50.4858 129.838 41.7289 126.668 34.3619 130.085C26.995 133.502 23.8077 142.212 27.243 149.54C30.6782 156.867 39.4352 160.037 46.8022 156.62Z" fill="#39CE8A"/>
<path d="M96.3032 310.905C99.198 309.562 100.45 306.14 99.1005 303.26C97.7507 300.381 94.3098 299.136 91.415 300.478C88.5203 301.821 87.2679 305.243 88.6177 308.123C89.9676 311.002 93.4085 312.247 96.3032 310.905Z" fill="#39CE8A"/>
<path d="M528.24 259.575L528.196 259.595C527.505 259.909 526.76 260.085 526.001 260.111C525.242 260.138 524.486 260.016 523.775 259.752C523.063 259.488 522.412 259.087 521.856 258.572C521.301 258.058 520.853 257.439 520.538 256.752C516.261 247.428 519.677 238.716 522.689 231.032C525.117 224.838 527.215 219.487 525.084 214.934C522.849 210.167 517.031 208.293 510.289 206.124C502.301 203.561 493.25 200.64 489.142 191.596C485.009 182.497 488.845 173.884 492.23 166.283C495.357 159.264 497.125 154.721 495.322 150.841C493.54 147.006 488.991 145.437 481.705 143.3C480.84 143.046 479.971 142.793 479.109 142.529C477.643 142.083 476.415 141.077 475.696 139.731C474.976 138.385 474.823 136.809 475.271 135.351C475.719 133.893 476.731 132.672 478.085 131.956C479.438 131.24 481.022 131.088 482.488 131.534C483.313 131.785 484.143 132.028 484.972 132.27C492.818 134.57 501.709 137.177 505.816 146.017C509.942 154.9 506.148 163.42 502.796 170.939C499.606 178.1 497.804 182.747 499.673 186.861C501.675 191.266 507.316 193.081 513.845 195.183C521.981 197.802 531.201 200.769 535.559 210.08C539.781 219.085 536.416 227.652 533.453 235.209C530.956 241.576 528.799 247.075 531.049 251.977C531.683 253.356 531.744 254.928 531.217 256.351C530.691 257.775 529.621 258.933 528.24 259.575Z" fill="#39CE8A"/>
<path d="M281.25 20.6287L281.444 20.745C282.08 21.1587 282.627 21.6929 283.055 22.3172C283.483 22.9414 283.782 23.6434 283.937 24.383C284.092 25.1226 284.099 25.8853 283.957 26.6274C283.815 27.3696 283.528 28.0767 283.111 28.7082C277.835 36.7254 268.86 37.9788 261.644 38.9902C254.831 39.942 250.532 40.6982 248.259 44.1779C245.75 47.9922 247.041 53.4469 248.534 59.7621C250.437 67.809 252.593 76.9299 247.26 85.5961C241.881 94.3376 232.71 96.39 224.621 98.2038C218.1 99.6649 212.467 100.927 209.864 105.231C207.14 109.739 208.832 115.585 210.794 122.357C213.125 130.378 215.752 139.474 210.51 147.919C205.239 156.416 195.912 158.07 187.685 159.527C180.087 160.875 175.311 161.956 173.085 165.613C170.885 169.226 172.122 173.854 174.416 181.055C174.688 181.911 174.962 182.77 175.226 183.63C175.457 184.355 175.542 185.118 175.474 185.875C175.407 186.632 175.189 187.368 174.834 188.041C174.478 188.714 173.993 189.31 173.404 189.795C172.816 190.28 172.136 190.644 171.405 190.866C170.674 191.088 169.907 191.164 169.146 191.089C168.386 191.014 167.648 190.79 166.975 190.429C166.302 190.069 165.708 189.579 165.227 188.989C164.745 188.398 164.386 187.719 164.171 186.99C163.919 186.168 163.658 185.347 163.396 184.528C160.927 176.773 158.127 167.985 163.198 159.657C168.295 151.287 177.518 149.651 185.66 148.211C193.413 146.836 198.293 145.724 200.677 141.883C203.23 137.767 201.588 132.102 199.688 125.542C197.322 117.369 194.639 108.107 199.962 99.3065C205.107 90.7899 214.129 88.7743 222.085 86.9914C228.789 85.4903 234.578 84.1936 237.406 79.5976C240.258 74.9637 238.881 69.1397 237.288 62.3993C235.45 54.6325 233.369 45.8283 238.597 37.8898C243.869 29.8744 252.841 28.6228 260.053 27.6156C266.869 26.6641 271.166 25.9064 273.452 22.4277C274.267 21.1845 275.534 20.3031 276.987 19.9678C278.44 19.6325 279.968 19.8693 281.25 20.6287Z" fill="#39CE8A"/>
<path d="M351.789 460.848C354.684 459.505 355.936 456.083 354.587 453.203C353.237 450.324 349.796 449.078 346.901 450.421C344.006 451.764 342.754 455.186 344.104 458.065C345.454 460.945 348.895 462.19 351.789 460.848Z" fill="#39CE8A"/>
<path d="M103.988 99.647C106.883 98.3044 108.135 94.8819 106.786 92.0027C105.436 89.1234 101.995 87.8777 99.1001 89.2204C96.2054 90.563 94.953 93.9855 96.3028 96.8647C97.6526 99.7439 101.094 100.99 103.988 99.647Z" fill="#39CE8A"/>
<path d="M111.674 36.4771C114.569 35.1345 115.821 31.712 114.472 28.8327C113.122 25.9535 109.681 24.7078 106.786 26.0504C103.891 27.393 102.639 30.8155 103.989 33.6948C105.339 36.574 108.78 37.8197 111.674 36.4771Z" fill="#39CE8A"/>
<path d="M145.317 370.589C148.211 369.247 149.464 365.824 148.114 362.945C146.764 360.066 143.323 358.82 140.428 360.163C137.534 361.505 136.281 364.928 137.631 367.807C138.981 370.686 142.422 371.932 145.317 370.589Z" fill="#39CE8A"/>
<path d="M225.063 468.491C227.958 467.148 229.21 463.726 227.86 460.846C226.51 457.967 223.069 456.721 220.175 458.064C217.28 459.407 216.028 462.829 217.377 465.708C218.727 468.588 222.168 469.833 225.063 468.491Z" fill="#39CE8A"/>
<path d="M367.16 23.003C370.055 21.6604 371.308 18.2379 369.958 15.3586C368.608 12.4794 365.167 11.2337 362.272 12.5763C359.377 13.9189 358.125 17.3414 359.475 20.2207C360.825 23.0999 364.266 24.3456 367.16 23.003Z" fill="#39CE8A"/>
<path d="M180.31 53.5699C183.205 52.2272 184.457 48.8048 183.107 45.9255C181.757 43.0463 178.316 41.8006 175.422 43.1432C172.527 44.4858 171.274 47.9083 172.624 50.7875C173.974 53.6668 177.415 54.9125 180.31 53.5699Z" fill="#39CE8A"/>
<path d="M35.3408 225.238C38.2356 223.896 39.4879 220.473 38.1381 217.594C36.7883 214.715 33.3473 213.469 30.4526 214.812C27.5579 216.154 26.3055 219.577 27.6553 222.456C29.0052 225.335 32.4461 226.581 35.3408 225.238Z" fill="#39CE8A"/>
<path d="M372.359 251.373C372.359 251.373 377.266 278.351 397.826 274.77" stroke="#39CE8A" stroke-width="4"/>
<path d="M186.363 251.373C186.363 251.373 181.456 278.351 160.896 274.77" stroke="#39CE8A" stroke-width="4"/>
</g>
</svg>
