<svg width="21" height="19" viewBox="0 0 21 19" fill="none" xmlns="http://www.w3.org/2000/svg">
<path d="M10.1356 3.827L10.6665 4.35788L11.1969 3.8264L12.017 3.00447L11.4866 2.47414L12.0176 3.00389L12.0174 3.00402C13.8275 1.19447 16.7572 1.19462 18.567 3.00446C20.3722 4.80972 20.3714 7.72904 18.5678 9.54356C18.5675 9.54386 18.5672 9.54416 18.567 9.54446L10.6672 17.4396L10.667 17.4398H10.667L2.77163 9.54449C2.77163 9.54449 2.77163 9.54449 2.77162 9.54449C0.965444 7.73828 0.965453 4.80989 2.77162 3.00373L2.77163 3.00373C4.5778 1.19755 7.50619 1.19756 9.31231 3.00372L9.31233 3.00375L10.1356 3.827Z" stroke="white" stroke-width="1.5"/>
</svg>
