<svg width="26" height="27" viewBox="0 0 26 27" fill="none" xmlns="http://www.w3.org/2000/svg">
<path d="M19.75 10.9346V7.18457M15.25 10.9346V7.18457M10.75 20.6846V16.9346M6.25 20.6846V16.9346M10.75 10.9346V7.18457M6.25 10.9346L6.25 7.18457M20.5 1.93457L5.5 1.93457C3.01472 1.93457 1 3.94929 1 6.43457C1 8.91985 1 18.9493 1 21.4346C1 23.9199 3.01472 25.9346 5.5 25.9346C5.5 25.9346 18.0147 25.9346 20.5 25.9346C22.9853 25.9346 25 23.9199 25 21.4346V6.43457C25 3.94929 22.9853 1.93457 20.5 1.93457Z" stroke="#757575" stroke-width="2" stroke-linecap="round" stroke-linejoin="round"/>
</svg>
