<svg width="24" height="22" viewBox="0 0 24 22" fill="none" xmlns="http://www.w3.org/2000/svg">
<path d="M9.66797 6.26774V3.93441C9.66797 3.31557 9.9138 2.72208 10.3514 2.28449C10.789 1.84691 11.3825 1.60107 12.0013 1.60107H20.168C20.7868 1.60107 21.3803 1.84691 21.8179 2.28449C22.2555 2.72208 22.5013 3.31557 22.5013 3.93441V17.9344C22.5013 18.5532 22.2555 19.1467 21.8179 19.5843C21.3803 20.0219 20.7868 20.2677 20.168 20.2677H12.0013C11.3825 20.2677 10.789 20.0219 10.3514 19.5843C9.9138 19.1467 9.66797 18.5532 9.66797 17.9344V15.6011" stroke="#757575" stroke-width="2" stroke-linecap="round" stroke-linejoin="round"/>
<path d="M15.5 10.9346H1.5M1.5 10.9346L5 7.43457M1.5 10.9346L5 14.4346" stroke="#757575" stroke-width="2" stroke-linecap="round" stroke-linejoin="round"/>
</svg>
