<svg width="25" height="25" viewBox="0 0 25 25" fill="none" xmlns="http://www.w3.org/2000/svg">
<path d="M20.5 7.25C21.2293 7.25 21.9288 6.96027 22.4445 6.44454C22.9603 5.92882 23.25 5.22935 23.25 4.5C23.25 3.77065 22.9603 3.07118 22.4445 2.55546C21.9288 2.03973 21.2293 1.75 20.5 1.75C19.7707 1.75 19.0712 2.03973 18.5555 2.55546C18.0397 3.07118 17.75 3.77065 17.75 4.5C17.75 5.22935 18.0397 5.92882 18.5555 6.44454C19.0712 6.96027 19.7707 7.25 20.5 7.25Z" fill="white"/>
<path d="M19.54 8.65001C18.7612 8.47394 18.0483 8.08085 17.4837 7.51629C16.9192 6.95172 16.5261 6.23877 16.35 5.46001C16.22 4.85001 16.21 4.26001 16.32 3.70001C16.3518 3.55529 16.3506 3.40527 16.3166 3.26106C16.2826 3.11685 16.2165 2.98214 16.1234 2.8669C16.0302 2.75167 15.9124 2.65886 15.7785 2.59535C15.6446 2.53185 15.4982 2.49926 15.35 2.50001H7.5C4.74 2.50001 2.5 4.74001 2.5 7.50001V14.45C2.5 17.21 4.74 19.45 7.5 19.45H9C9.28 19.45 9.64 19.63 9.8 19.85L11.3 21.84C11.96 22.72 13.04 22.72 13.7 21.84L15.2 19.85C15.2931 19.7258 15.4139 19.625 15.5528 19.5556C15.6916 19.4862 15.8448 19.45 16 19.45H17.51C20.27 19.45 22.5 17.22 22.5 14.46V9.65001C22.5 9.02001 21.92 8.56001 21.3 8.68001C20.74 8.78001 20.15 8.78001 19.54 8.65001ZM8.5 12.5C7.94 12.5 7.5 12.05 7.5 11.5C7.5 10.95 7.94 10.5 8.5 10.5C9.05 10.5 9.5 10.95 9.5 11.5C9.5 12.05 9.06 12.5 8.5 12.5ZM12.5 12.5C11.94 12.5 11.5 12.05 11.5 11.5C11.5 10.95 11.94 10.5 12.5 10.5C13.05 10.5 13.5 10.95 13.5 11.5C13.5 12.05 13.06 12.5 12.5 12.5ZM16.5 12.5C15.94 12.5 15.5 12.05 15.5 11.5C15.5 10.95 15.94 10.5 16.5 10.5C17.05 10.5 17.5 10.95 17.5 11.5C17.5 12.05 17.06 12.5 16.5 12.5Z" fill="white"/>
</svg>
