<svg width="25" height="25" viewBox="0 0 25 25" fill="none" xmlns="http://www.w3.org/2000/svg">
<g clip-path="url(#clip0_2717_10046)">
<path fill-rule="evenodd" clip-rule="evenodd" d="M21.6665 4.32113C21.6665 3.38413 20.6615 2.75813 19.8155 3.22313C18.6785 3.84713 15.3125 5.66513 13.2975 6.46613C10.9525 7.39713 8.9335 7.74713 6.6195 7.85513C5.0165 7.92913 3.6665 9.22413 3.6665 10.8951V14.8951C3.6665 16.5661 5.0165 17.8611 6.6195 17.9351C6.8935 17.9481 7.1625 17.9641 7.4295 17.9841L6.6855 21.6991C6.63352 21.9593 6.68702 22.2295 6.83424 22.4502C6.98146 22.6709 7.21033 22.8242 7.4705 22.8761C7.73068 22.9281 8.00085 22.8746 8.22158 22.7274C8.44231 22.5802 8.59552 22.3513 8.6475 22.0911L9.4205 18.2231C10.6835 18.4381 11.9355 18.7831 13.2975 19.3241C15.3125 20.1251 18.6775 21.9441 19.8155 22.5671C20.6615 23.0321 21.6665 22.4061 21.6665 21.4691V4.32113ZM9.6665 16.2371C11.0845 16.4721 12.4995 16.8551 14.0365 17.4661C15.6885 18.1221 18.1225 19.3851 19.6665 20.2121V5.57813C18.1225 6.40513 15.6885 7.66813 14.0365 8.32413C12.4995 8.93413 11.0845 9.31813 9.6665 9.55413V16.2371ZM7.6665 9.79413C7.3515 9.81813 7.0345 9.83813 6.7125 9.85313C6.1095 9.88113 5.6665 10.3571 5.6665 10.8951V14.8951C5.6665 15.4331 6.1095 15.9091 6.7125 15.9371C7.0345 15.9521 7.3525 15.9721 7.6665 15.9971V9.79413Z" fill="white"/>
</g>
<defs>
<clipPath id="clip0_2717_10046">
<rect width="24" height="24" fill="white" transform="translate(0.666504 0.89502)"/>
</clipPath>
</defs>
</svg>
