<svg width="136" height="136" viewBox="0 0 136 136" fill="none" xmlns="http://www.w3.org/2000/svg">
<circle cx="68" cy="68" r="68" fill="#C10D10"/>
<path d="M81.3947 103.996H54.6068C35.353 103.996 35.353 93.7833 35.353 84.7424V81.394C35.353 73.9268 35.353 65.4886 51.2583 65.4886C55.243 65.4886 56.7164 66.4597 58.7924 68C58.8929 68.1005 59.0268 68.1674 59.1273 68.3014L62.5427 71.9177C65.4224 74.9649 70.6461 74.9649 73.5258 71.9177L76.9412 68.3014C77.0417 68.2009 77.1421 68.1005 77.2761 68C79.3521 66.4262 80.8255 65.4886 84.8102 65.4886C100.715 65.4886 100.715 73.9268 100.715 81.394V84.7424C100.648 97.5336 94.1859 103.996 81.3947 103.996ZM51.2583 70.5114C40.3758 70.5114 40.3758 73.9268 40.3758 81.394V84.7424C40.3758 93.9173 40.3758 98.9735 54.6068 98.9735H81.3947C91.3732 98.9735 95.6258 94.7209 95.6258 84.7424V81.394C95.6258 73.9268 95.6258 70.5114 84.7432 70.5114C82.3323 70.5114 81.83 70.8127 80.3901 71.8843L77.1421 75.3332C74.7312 77.878 71.4832 79.2844 68.0008 79.2844C64.5183 79.2844 61.2703 77.878 58.8594 75.3332L55.6114 71.8843C54.1715 70.8127 53.6692 70.5114 51.2583 70.5114Z" fill="white"/>
<path d="M91.44 70.5114C90.0671 70.5114 88.9286 69.3729 88.9286 68V47.9091C88.9286 40.442 88.9286 37.0265 78.046 37.0265H57.9551C47.0725 37.0265 47.0725 40.442 47.0725 47.9091V68C47.0725 69.3729 45.934 70.5114 44.5612 70.5114C43.1883 70.5114 42.0498 69.3729 42.0498 68V47.9091C42.0498 40.442 42.0498 32.0038 57.9551 32.0038H78.046C93.9513 32.0038 93.9513 40.442 93.9513 47.9091V68C93.9513 69.3729 92.8128 70.5114 91.44 70.5114Z" fill="white"/>
<path d="M74.2951 61.236H63.1447C61.7718 61.236 60.6333 60.0975 60.6333 58.7246C60.6333 57.3517 61.7718 56.2133 63.1447 56.2133H74.2951C75.668 56.2133 76.8065 57.3517 76.8065 58.7246C76.8065 60.0975 75.7015 61.236 74.2951 61.236Z" fill="white"/>
<path d="M77.1077 51.1906H60.3654C58.9925 51.1906 57.854 50.0521 57.854 48.6792C57.854 47.3063 58.9925 46.1678 60.3654 46.1678H77.1077C78.4806 46.1678 79.6191 47.3063 79.6191 48.6792C79.6191 50.0521 78.5141 51.1906 77.1077 51.1906Z" fill="white"/>
</svg>
