<svg width="22" height="23" viewBox="0 0 22 23" fill="none" xmlns="http://www.w3.org/2000/svg">
<path d="M20.79 16.0657C19.2867 16.0657 17.8322 15.8212 16.4756 15.3812C16.263 15.3092 16.0345 15.2985 15.8161 15.3504C15.5978 15.4023 15.3985 15.5146 15.2411 15.6746L13.3222 18.0823C9.86333 16.4323 6.62444 13.3157 4.90111 9.73457L7.28444 7.70568C7.61444 7.36346 7.71222 6.88679 7.57778 6.45901C7.12556 5.10235 6.89333 3.6479 6.89333 2.14457C6.89333 1.48457 6.34333 0.93457 5.68333 0.93457H1.45444C0.794445 0.93457 0 1.2279 0 2.14457C0 13.499 9.44778 22.9346 20.79 22.9346C21.6578 22.9346 22 22.1646 22 21.4923V17.2757C22 16.6157 21.45 16.0657 20.79 16.0657Z" fill="#757575"/>
</svg>
