<svg width="24" height="24" viewBox="0 0 24 24" fill="none" xmlns="http://www.w3.org/2000/svg">
<path d="M17.0909 9.81818C16.4 9.81818 15.8 9.61212 15.2909 9.2C14.7818 8.78788 14.4424 8.26667 14.2727 7.63636H9.70909C9.57576 8.14545 9.32436 8.58497 8.95491 8.95491C8.58545 9.32485 8.14594 9.57624 7.63636 9.70909V14.2727C8.26667 14.4424 8.78788 14.7818 9.2 15.2909C9.61212 15.8 9.81818 16.4 9.81818 17.0909C9.81818 17.8909 9.53333 18.5758 8.96364 19.1455C8.39394 19.7152 7.70909 20 6.90909 20C6.10909 20 5.42424 19.7152 4.85455 19.1455C4.28485 18.5758 4 17.8909 4 17.0909C4 16.4 4.20606 15.8 4.61818 15.2909C5.0303 14.7818 5.55152 14.4424 6.18182 14.2727V9.70909C5.55152 9.53939 5.0303 9.2 4.61818 8.69091C4.20606 8.18182 4 7.58788 4 6.90909C4 6.10909 4.28485 5.42424 4.85455 4.85455C5.42424 4.28485 6.10909 4 6.90909 4C7.58788 4 8.18182 4.20606 8.69091 4.61818C9.2 5.0303 9.53939 5.55152 9.70909 6.18182H14.2727C14.4424 5.55152 14.7818 5.0303 15.2909 4.61818C15.8 4.20606 16.4 4 17.0909 4C17.8909 4 18.5758 4.28485 19.1455 4.85455C19.7152 5.42424 20 6.10909 20 6.90909C20 7.70909 19.7152 8.39394 19.1455 8.96364C18.5758 9.53333 17.8909 9.81818 17.0909 9.81818ZM6.90909 18.5455C7.30909 18.5455 7.65164 18.4 7.93673 18.1091C8.22182 17.8182 8.36412 17.4788 8.36364 17.0909C8.36364 16.6909 8.22133 16.3486 7.93673 16.064C7.65212 15.7794 7.30958 15.6368 6.90909 15.6364C6.52121 15.6364 6.18182 15.7789 5.89091 16.064C5.6 16.3491 5.45455 16.6914 5.45455 17.0909C5.45455 17.4788 5.6 17.8182 5.89091 18.1091C6.18182 18.4 6.52121 18.5455 6.90909 18.5455ZM6.90909 8.36364C7.30909 8.36364 7.65164 8.22133 7.93673 7.93673C8.22182 7.65212 8.36412 7.30958 8.36364 6.90909C8.36315 6.50861 8.22085 6.1663 7.93673 5.88218C7.65261 5.59806 7.31006 5.45552 6.90909 5.45455C6.52121 5.45455 6.18182 5.59709 5.89091 5.88218C5.6 6.16727 5.45455 6.50958 5.45455 6.90909C5.45455 7.30861 5.6 7.65115 5.89091 7.93673C6.18182 8.2223 6.52121 8.36461 6.90909 8.36364ZM17.0909 20C16.2909 20 15.6061 19.7152 15.0364 19.1455C14.4667 18.5758 14.1818 17.8909 14.1818 17.0909C14.1818 16.2909 14.4667 15.6061 15.0364 15.0364C15.6061 14.4667 16.2909 14.1818 17.0909 14.1818C17.8909 14.1818 18.5758 14.4667 19.1455 15.0364C19.7152 15.6061 20 16.2909 20 17.0909C20 17.8909 19.7152 18.5758 19.1455 19.1455C18.5758 19.7152 17.8909 20 17.0909 20ZM17.0909 18.5455C17.4909 18.5455 17.8335 18.4 18.1185 18.1091C18.4036 17.8182 18.5459 17.4788 18.5455 17.0909C18.5455 16.6909 18.4032 16.3486 18.1185 16.064C17.8339 15.7794 17.4914 15.6368 17.0909 15.6364C16.6904 15.6359 16.3481 15.7784 16.064 16.064C15.7799 16.3496 15.6373 16.6919 15.6364 17.0909C15.6364 17.4788 15.7789 17.8182 16.064 18.1091C16.3491 18.4 16.6914 18.5455 17.0909 18.5455ZM17.0909 8.36364C17.4909 8.36364 17.8335 8.22133 18.1185 7.93673C18.4036 7.65212 18.5459 7.30958 18.5455 6.90909C18.545 6.50861 18.4027 6.1663 18.1185 5.88218C17.8344 5.59806 17.4919 5.45552 17.0909 5.45455C16.6899 5.45358 16.3476 5.59612 16.064 5.88218C15.7804 6.16824 15.6378 6.51055 15.6364 6.90909C15.6349 7.30764 15.7775 7.65018 16.064 7.93673C16.3505 8.22327 16.6928 8.36558 17.0909 8.36364Z" fill="#C10D10"/>
</svg>
