<svg width="22" height="23" viewBox="0 0 22 23" fill="none" xmlns="http://www.w3.org/2000/svg">
<path d="M18 8.5C17.05 8.5 16.225 8.21667 15.525 7.65C14.825 7.08333 14.3583 6.36667 14.125 5.5H7.85C7.66667 6.2 7.321 6.80433 6.813 7.313C6.305 7.82167 5.70067 8.16733 5 8.35V14.625C5.86667 14.8583 6.58333 15.325 7.15 16.025C7.71667 16.725 8 17.55 8 18.5C8 19.6 7.60833 20.5417 6.825 21.325C6.04167 22.1083 5.1 22.5 4 22.5C2.9 22.5 1.95833 22.1083 1.175 21.325C0.391667 20.5417 0 19.6 0 18.5C0 17.55 0.283333 16.725 0.85 16.025C1.41667 15.325 2.13333 14.8583 3 14.625V8.35C2.13333 8.11667 1.41667 7.65 0.85 6.95C0.283333 6.25 0 5.43333 0 4.5C0 3.4 0.391667 2.45833 1.175 1.675C1.95833 0.891667 2.9 0.5 4 0.5C4.93333 0.5 5.75 0.783333 6.45 1.35C7.15 1.91667 7.61667 2.63333 7.85 3.5H14.125C14.3583 2.63333 14.825 1.91667 15.525 1.35C16.225 0.783333 17.05 0.5 18 0.5C19.1 0.5 20.0417 0.891667 20.825 1.675C21.6083 2.45833 22 3.4 22 4.5C22 5.6 21.6083 6.54167 20.825 7.325C20.0417 8.10833 19.1 8.5 18 8.5ZM4 20.5C4.55 20.5 5.021 20.3 5.413 19.9C5.805 19.5 6.00067 19.0333 6 18.5C6 17.95 5.80433 17.4793 5.413 17.088C5.02167 16.6967 4.55067 16.5007 4 16.5C3.46667 16.5 3 16.696 2.6 17.088C2.2 17.48 2 17.9507 2 18.5C2 19.0333 2.2 19.5 2.6 19.9C3 20.3 3.46667 20.5 4 20.5ZM4 6.5C4.55 6.5 5.021 6.30433 5.413 5.913C5.805 5.52167 6.00067 5.05067 6 4.5C5.99933 3.94933 5.80367 3.47867 5.413 3.088C5.02233 2.69733 4.55133 2.50133 4 2.5C3.46667 2.5 3 2.696 2.6 3.088C2.2 3.48 2 3.95067 2 4.5C2 5.04933 2.2 5.52033 2.6 5.913C3 6.30567 3.46667 6.50133 4 6.5ZM18 22.5C16.9 22.5 15.9583 22.1083 15.175 21.325C14.3917 20.5417 14 19.6 14 18.5C14 17.4 14.3917 16.4583 15.175 15.675C15.9583 14.8917 16.9 14.5 18 14.5C19.1 14.5 20.0417 14.8917 20.825 15.675C21.6083 16.4583 22 17.4 22 18.5C22 19.6 21.6083 20.5417 20.825 21.325C20.0417 22.1083 19.1 22.5 18 22.5ZM18 20.5C18.55 20.5 19.021 20.3 19.413 19.9C19.805 19.5 20.0007 19.0333 20 18.5C20 17.95 19.8043 17.4793 19.413 17.088C19.0217 16.6967 18.5507 16.5007 18 16.5C17.4493 16.4993 16.9787 16.6953 16.588 17.088C16.1973 17.4807 16.0013 17.9513 16 18.5C16 19.0333 16.196 19.5 16.588 19.9C16.98 20.3 17.4507 20.5 18 20.5ZM18 6.5C18.55 6.5 19.021 6.30433 19.413 5.913C19.805 5.52167 20.0007 5.05067 20 4.5C19.9993 3.94933 19.8037 3.47867 19.413 3.088C19.0223 2.69733 18.5513 2.50133 18 2.5C17.4487 2.49867 16.978 2.69467 16.588 3.088C16.198 3.48133 16.002 3.952 16 4.5C15.998 5.048 16.194 5.519 16.588 5.913C16.982 6.307 17.4527 6.50267 18 6.5Z" fill="#CE9D9D"/>
</svg>
