<svg width="35" height="36" viewBox="0 0 35 36" fill="none" xmlns="http://www.w3.org/2000/svg">
<g clip-path="url(#clip0_2898_4597)">
<path d="M19.3871 0.934574C19.9016 0.934574 20.3619 1.25482 20.5351 1.73432L21.7706 5.15907C22.2134 5.26932 22.5931 5.37957 22.9151 5.49507C23.2669 5.62107 23.7201 5.81182 24.2801 6.07257L27.1571 4.55007C27.392 4.42566 27.6608 4.38075 27.9233 4.42209C28.1859 4.46342 28.4279 4.58877 28.6131 4.77932L31.1436 7.39557C31.4796 7.74382 31.5741 8.25307 31.3851 8.69757L30.0359 11.8598C30.2599 12.2711 30.4384 12.6228 30.5749 12.9168C30.7219 13.2371 30.9039 13.6781 31.1209 14.2468L34.2656 15.5943C34.7381 15.7956 35.0304 16.2681 34.9989 16.7738L34.7679 20.4051C34.7521 20.641 34.6674 20.8671 34.5243 21.0553C34.3812 21.2435 34.186 21.3855 33.9629 21.4638L30.9844 22.5226C30.8986 22.9338 30.8094 23.2856 30.7149 23.5831C30.5625 24.0425 30.3884 24.4945 30.1934 24.9376L31.6896 28.2451C31.7952 28.4775 31.8237 28.7376 31.7708 28.9873C31.7179 29.237 31.5864 29.4632 31.3956 29.6328L28.5501 32.1738C28.3627 32.3405 28.1289 32.4459 27.8799 32.4759C27.631 32.5059 27.3788 32.4591 27.1571 32.3418L24.2241 30.7878C23.7653 31.0308 23.2919 31.2453 22.8066 31.4301L21.5256 31.9096L20.3881 35.0596C20.3039 35.2903 20.1518 35.4901 19.9519 35.6328C19.752 35.7755 19.5137 35.8545 19.2681 35.8593L15.9431 35.9346C15.6911 35.9412 15.4432 35.8695 15.2335 35.7294C15.0238 35.5893 14.8627 35.3877 14.7724 35.1523L13.4319 31.6051C12.9745 31.4488 12.5217 31.2795 12.0739 31.0976C11.7076 30.9391 11.3469 30.768 10.9924 30.5848L7.66739 32.0058C7.44831 32.0993 7.20677 32.1271 6.97219 32.0857C6.73761 32.0444 6.5201 31.9358 6.34614 31.7731L3.88564 29.4648C3.70245 29.2937 3.5777 29.0693 3.52902 28.8234C3.48034 28.5775 3.51021 28.3226 3.61439 28.0946L5.04414 24.9796C4.85399 24.6106 4.6777 24.2347 4.51564 23.8526C4.32647 23.3849 4.15139 22.9116 3.99064 22.4333L0.858143 21.4796C0.603519 21.4026 0.381433 21.2437 0.226375 21.0276C0.0713171 20.8115 -0.00803478 20.5502 0.000643071 20.2843L0.123143 16.9226C0.131863 16.7032 0.200382 16.4904 0.321292 16.3072C0.442202 16.124 0.6109 15.9773 0.809143 15.8831L4.09564 14.3046C4.24789 13.7463 4.38089 13.3123 4.49814 12.9956C4.66324 12.5725 4.84658 12.1568 5.04764 11.7496L3.62314 8.73957C3.51504 8.51099 3.48221 8.25402 3.52938 8.0056C3.57655 7.75718 3.70128 7.53012 3.88564 7.35707L6.34264 5.03657C6.51488 4.87413 6.73039 4.76491 6.96324 4.72206C7.19609 4.67922 7.43636 4.70457 7.65514 4.79507L10.9766 6.16707C11.3441 5.92207 11.6766 5.72432 11.9776 5.56507C12.3364 5.37432 12.8159 5.17482 13.4196 4.95957L14.5746 1.73782C14.66 1.50204 14.8161 1.29837 15.0216 1.1546C15.227 1.01084 15.4719 0.933999 15.7226 0.934574H19.3871ZM18.5296 3.34432H16.5819L15.5231 6.30882C15.4609 6.48168 15.3602 6.63814 15.2286 6.76637C15.097 6.89461 14.938 6.99128 14.7636 7.04907C14.0006 7.30282 13.4494 7.52157 13.1274 7.69132C12.7861 7.87157 12.3504 8.14632 11.8324 8.51382C11.6629 8.63281 11.466 8.70706 11.2601 8.7297C11.0543 8.75234 10.846 8.72263 10.6546 8.64332L7.45214 7.32207L6.20439 8.50157L7.50464 11.2491C7.58249 11.4125 7.622 11.5916 7.62018 11.7727C7.61836 11.9537 7.57526 12.132 7.49414 12.2938C7.14414 12.9956 6.90789 13.5136 6.78889 13.8321C6.60641 14.3623 6.44874 14.9007 6.31639 15.4456C6.27243 15.6161 6.19168 15.775 6.07983 15.911C5.96798 16.047 5.82772 16.157 5.66889 16.2331L2.53639 17.7363L2.47339 19.4513L5.30839 20.3123C5.68464 20.4261 5.98214 20.7148 6.10639 21.0858C6.38639 21.9258 6.61039 22.5453 6.77139 22.9338C6.98472 23.4268 7.22064 23.9098 7.47839 24.3811C7.56559 24.5432 7.61398 24.7234 7.61975 24.9074C7.62552 25.0914 7.58852 25.2743 7.51164 25.4416L6.19739 28.3081L7.44164 29.4771L10.5601 28.1436C10.7281 28.0718 10.91 28.0383 11.0925 28.0456C11.275 28.0528 11.4537 28.1007 11.6154 28.1856C12.2541 28.5216 12.7301 28.7543 13.0311 28.8821C13.3374 29.0098 13.9236 29.2233 14.7741 29.5138C14.943 29.5715 15.097 29.6657 15.2253 29.7897C15.3535 29.9137 15.4529 30.0645 15.5161 30.2313L16.7551 33.5056L18.3756 33.4706L19.4204 30.5761C19.4801 30.4109 19.5751 30.2607 19.6987 30.1359C19.8223 30.0111 19.9716 29.9147 20.1361 29.8533L21.9509 29.1743C22.4094 29.0046 22.9659 28.7368 23.6151 28.3693C23.7948 28.2684 23.997 28.2142 24.2031 28.2117C24.4092 28.2093 24.6126 28.2587 24.7946 28.3553L27.5544 29.8166L29.1066 28.4323L27.7486 25.4346C27.6789 25.2807 27.6427 25.1137 27.6424 24.9448C27.6421 24.7758 27.6777 24.6087 27.7469 24.4546C28.0654 23.7423 28.2806 23.2051 28.3891 22.8621C28.4959 22.5261 28.6061 22.0413 28.7129 21.4183C28.7496 21.2067 28.8421 21.0087 28.9808 20.8448C29.1196 20.6808 29.2995 20.5568 29.5021 20.4856L32.3861 19.4618L32.5121 17.4668L29.6771 16.2523C29.5262 16.1881 29.3899 16.0938 29.2765 15.9753C29.1631 15.8568 29.0749 15.7164 29.0174 15.5628C28.8152 15.005 28.5946 14.454 28.3559 13.9108C28.1299 13.4379 27.8847 12.9743 27.6209 12.5213C27.5295 12.3613 27.4764 12.1823 27.4658 11.9983C27.4552 11.8143 27.4873 11.6303 27.5596 11.4608L28.8284 8.48582L27.4914 7.10332L24.8874 8.48232C24.7174 8.57249 24.5286 8.62151 24.3362 8.62546C24.1438 8.62942 23.9532 8.58818 23.7796 8.50507C23.2269 8.23026 22.6616 7.98149 22.0856 7.75957C21.5945 7.59464 21.0936 7.46021 20.5859 7.35707C20.3844 7.31436 20.1971 7.22112 20.0416 7.08611C19.8861 6.95111 19.7675 6.77878 19.6969 6.58532L18.5296 3.34432ZM17.5426 10.8063C21.8039 10.8063 25.2601 14.2241 25.2601 18.4381C25.2601 22.6521 21.8039 26.0681 17.5426 26.0681C13.2796 26.0681 9.82514 22.6521 9.82514 18.4381C9.82514 14.2241 13.2796 10.8081 17.5426 10.8081M17.5426 13.2196C14.6254 13.2196 12.2611 15.5558 12.2611 18.4398C12.2611 21.3238 14.6254 23.6618 17.5426 23.6618C20.4581 23.6618 22.8224 21.3238 22.8224 18.4398C22.8224 15.5558 20.4599 13.2196 17.5426 13.2196Z" fill="#757575"/>
</g>
<defs>
<clipPath id="clip0_2898_4597">
<rect width="35" height="35" fill="white" transform="translate(0 0.93457)"/>
</clipPath>
</defs>
</svg>
