<svg width="17" height="18" viewBox="0 0 17 18" fill="none" xmlns="http://www.w3.org/2000/svg">
<path fill-rule="evenodd" clip-rule="evenodd" d="M12.6297 1.5842C12.4631 1.32711 12.2175 1.12658 11.9273 1.01053C11.6371 0.894475 11.3167 0.868668 11.0105 0.936703L8.83796 1.41854C8.61531 1.46795 8.38395 1.46795 8.16129 1.41854L5.98871 0.936703C5.6826 0.868668 5.36213 0.894475 5.07192 1.01053C4.7817 1.12658 4.53619 1.32711 4.36954 1.5842L3.18538 3.40887C3.06454 3.59554 2.90142 3.75304 2.70808 3.87087L0.818252 5.0142C0.55244 5.17496 0.345054 5.41163 0.22488 5.69135C0.104706 5.97108 0.0777056 6.27999 0.147626 6.5752L0.646668 8.6752C0.697658 8.88981 0.697658 9.11277 0.646668 9.32737L0.147626 11.4262C0.0774338 11.7216 0.104298 12.0308 0.224485 12.3107C0.344672 12.5907 0.55221 12.8275 0.818252 12.9884L2.70808 14.1317C2.90142 14.2484 3.06454 14.4059 3.18658 14.5925L4.37075 16.4172C4.7115 16.9434 5.36158 17.2035 5.98871 17.0647L8.16129 16.5829C8.38395 16.5335 8.61531 16.5335 8.83796 16.5829L11.0118 17.0647C11.3177 17.1325 11.6379 17.1065 11.9279 16.9905C12.2178 16.8745 12.4631 16.6741 12.6297 16.4172L13.8139 14.5925C13.9347 14.4059 14.0978 14.2484 14.2912 14.1317L16.1822 12.9884C16.4483 12.8273 16.6557 12.5902 16.7757 12.31C16.8957 12.0298 16.9222 11.7205 16.8516 11.425L16.3538 9.32737C16.3026 9.1124 16.3026 8.88901 16.3538 8.67404L16.8528 6.5752C16.9231 6.27994 16.8965 5.97086 16.7765 5.69091C16.6565 5.41096 16.4492 5.17403 16.1834 5.01304L14.2924 3.8697C14.0993 3.75282 13.9361 3.59528 13.8151 3.40887L12.6297 1.5842ZM12.0219 6.39904C12.0967 6.26635 12.1152 6.11084 12.0736 5.96524C12.032 5.81963 11.9335 5.69529 11.7989 5.61835C11.6643 5.54142 11.504 5.51791 11.3518 5.55276C11.1995 5.58761 11.0673 5.6781 10.9828 5.8052L7.82296 10.9689L5.915 9.20487C5.8584 9.14876 5.79067 9.10422 5.71586 9.07393C5.64104 9.04363 5.56068 9.02819 5.47955 9.02853C5.39842 9.02888 5.3182 9.04499 5.24366 9.07592C5.16912 9.10684 5.1018 9.15194 5.0457 9.20853C4.98961 9.26512 4.9459 9.33204 4.91717 9.40529C4.88844 9.47855 4.87528 9.55664 4.87849 9.63491C4.88169 9.71317 4.90119 9.79002 4.93582 9.86085C4.97045 9.93169 5.0195 9.99507 5.08004 10.0472L7.53779 12.321C7.60357 12.3818 7.68271 12.4274 7.7693 12.4544C7.85589 12.4815 7.9477 12.4893 8.03785 12.4773C8.12801 12.4653 8.2142 12.4338 8.28997 12.3851C8.36575 12.3364 8.42916 12.2719 8.47546 12.1962L12.0219 6.39904Z" fill="#0093FF"/>
</svg>
