<svg width="16" height="16" viewBox="0 0 16 16" fill="none" xmlns="http://www.w3.org/2000/svg">
<path d="M13.6569 2.34314C12.1459 0.832153 10.1368 0 8 0C5.86316 0 3.85413 0.832153 2.34314 2.34314C0.832153 3.85413 0 5.86316 0 8C0 10.1368 0.832153 12.1459 2.34314 13.6569C3.85413 15.1678 5.86316 16 8 16C10.1368 16 12.1459 15.1678 13.6569 13.6569C15.1678 12.1459 16 10.1368 16 8C16 5.86316 15.1678 3.85413 13.6569 2.34314ZM8 15.0625C4.10571 15.0625 0.9375 11.8943 0.9375 8C0.9375 4.10571 4.10571 0.9375 8 0.9375C11.8943 0.9375 15.0625 4.10571 15.0625 8C15.0625 11.8943 11.8943 15.0625 8 15.0625Z" fill="#6D6E70"/>
<path d="M8.00098 1.86621C4.61877 1.86621 1.86719 4.6178 1.86719 8C1.86719 11.3822 4.61877 14.1338 8.00098 14.1338C11.3832 14.1338 14.1348 11.3822 14.1348 8C14.1348 4.6178 11.3832 1.86621 8.00098 1.86621ZM8.00098 13.1963C5.2937 13.1963 3.06384 11.1151 2.82605 8.46875H3.9281V7.53125H2.82605C2.92322 6.44995 3.35291 5.46301 4.01196 4.67383L4.78955 5.45142L5.45251 4.78857L4.67493 4.01099C5.46399 3.35193 6.45093 2.92224 7.53223 2.82507V3.927H8.46973V2.82507C9.55103 2.92224 10.538 3.35193 11.327 4.01099L10.5494 4.78857L11.2124 5.45142L11.99 4.67383C12.649 5.46301 13.0787 6.44995 13.1759 7.53125H12.0739V8.46875H13.1759C12.9381 11.1151 10.7083 13.1963 8.00098 13.1963Z" fill="#6D6E70"/>
<path d="M8.46936 6.71289V5.1875H7.53186V6.71289C7.00671 6.90466 6.63086 7.4093 6.63086 8C6.63086 8.5907 7.00671 9.09534 7.53186 9.28711V9.927H8.46936V9.28711C8.99451 9.09534 9.37036 8.5907 9.37036 8C9.37036 7.4093 8.99451 6.90466 8.46936 6.71289ZM8.00061 8.43225C7.76221 8.43225 7.56836 8.2384 7.56836 8C7.56836 7.7616 7.76221 7.56775 8.00061 7.56775C8.23901 7.56775 8.43286 7.7616 8.43286 8C8.43286 8.2384 8.23901 8.43225 8.00061 8.43225Z" fill="#6D6E70"/>
<path d="M6.74023 10.8955H9.26099V11.833H6.74023V10.8955Z" fill="#6D6E70"/>
</svg>
