<svg width="25" height="25" viewBox="0 0 25 25" fill="none" xmlns="http://www.w3.org/2000/svg">
<path fill-rule="evenodd" clip-rule="evenodd" d="M21.0895 3.98822C19.9825 2.87921 18.6654 1.99986 17.2145 1.4011C15.7636 0.802332 14.2077 0.496065 12.637 0.500038C6.05064 0.500038 0.688921 5.83498 0.686259 12.3927C0.686259 14.4885 1.23601 16.534 2.28093 18.3384L0.586426 24.5L6.92119 22.8453C8.67346 23.7947 10.6366 24.2925 12.6317 24.2933H12.637C19.222 24.2933 24.5837 18.9584 24.5864 12.4007C24.5909 10.838 24.2842 9.29003 23.684 7.8461C23.0838 6.40216 22.202 5.09094 21.0895 3.98822ZM12.637 22.2863H12.633C10.854 22.2865 9.10772 21.8101 7.57743 20.9072L7.21536 20.6925L3.4563 21.6742L4.45863 18.0271L4.22302 17.6535C3.2284 16.0775 2.70187 14.2538 2.70423 12.3927C2.70689 6.94251 7.16212 2.50843 12.641 2.50843C13.9458 2.50554 15.2382 2.76024 16.4435 3.2578C17.6488 3.75535 18.7429 4.48587 19.6626 5.40707C20.5872 6.32389 21.3201 7.414 21.8188 8.6144C22.3176 9.8148 22.5724 11.1017 22.5684 12.4007C22.5657 17.8509 18.1105 22.2863 12.637 22.2863ZM18.0852 14.882C17.7857 14.7323 16.3188 14.0143 16.0446 13.9149C15.7718 13.8155 15.5734 13.7665 15.3737 14.0633C15.1741 14.36 14.6017 15.029 14.4273 15.2278C14.253 15.4265 14.0786 15.4503 13.7804 15.302C13.4822 15.1536 12.5198 14.8396 11.3791 13.8275C10.4912 13.0392 9.89223 12.0668 9.71785 11.7687C9.54348 11.4707 9.69922 11.3104 9.84963 11.162C9.98408 11.0295 10.1478 10.8149 10.2969 10.6413C10.446 10.4678 10.4952 10.3446 10.5951 10.1459C10.6949 9.94714 10.6456 9.77359 10.5698 9.62522C10.4952 9.47551 9.89755 8.01294 9.64864 7.41811C9.4077 6.84183 9.16145 6.91866 8.97776 6.91072C8.78751 6.90297 8.59711 6.89944 8.40671 6.90012C8.2553 6.90396 8.10633 6.93889 7.96912 7.00272C7.83191 7.06655 7.70944 7.15791 7.60937 7.27106C7.33516 7.56914 6.56445 8.28718 6.56445 9.74975C6.56445 11.2123 7.63466 12.6259 7.78375 12.8246C7.93283 13.0233 9.88957 16.024 12.8846 17.3117C13.598 17.6177 14.1545 17.8005 14.5871 17.9383C15.3019 18.1648 15.9528 18.1317 16.4679 18.0562C17.0416 17.9714 18.2343 17.3382 18.4832 16.644C18.7321 15.9498 18.7321 15.3549 18.6576 15.2304C18.5831 15.1059 18.3821 15.0304 18.0852 14.882Z" fill="white"/>
</svg>
