<svg width="24" height="25" viewBox="0 0 24 25" fill="none" xmlns="http://www.w3.org/2000/svg">
<g clip-path="url(#clip0_2707_3074)">
<path d="M2.75854 19.6925L2.84063 19.4478L2.6887 19.2392C1.31051 17.3465 0.5 15.016 0.5 12.5C0.5 6.15802 5.65676 1 11.997 1H12.003C18.3432 1 23.5 6.15948 23.5 12.5C23.5 18.8405 18.3432 24 12.003 24C9.6635 24 7.49561 23.3045 5.67763 22.1002L5.47769 21.9677L5.24925 22.0407L1.57698 23.2147L2.75854 19.6925Z" fill="#4CAF50" stroke="white"/>
<path d="M12.6187 17.7741L12.6188 17.7741C13.9809 18.3388 14.8337 18.5816 15.4059 18.6724C15.9563 18.7597 16.2536 18.708 16.5254 18.6502C16.9185 18.5651 17.3756 18.3725 17.7627 18.1105C18.1589 17.8424 18.4199 17.5442 18.5139 17.2789C18.6444 16.9099 18.7079 16.5722 18.73 16.3183C18.7405 16.1983 18.7411 16.1034 18.737 16.0371C18.7307 16.0334 18.7237 16.0295 18.7159 16.0252C18.6719 16.0012 18.6177 15.9745 18.5445 15.9391C18.5325 15.9333 18.5202 15.9274 18.5074 15.9212C18.4451 15.8913 18.3733 15.8567 18.2966 15.8182C18.1207 15.7306 17.6067 15.4762 17.0967 15.2299C16.5672 14.9741 16.0923 14.752 15.9653 14.7079L15.9527 14.7035L15.9528 14.7033C15.8583 14.6677 15.8121 14.6735 15.7955 14.6778C15.7857 14.6803 15.7424 14.6922 15.6764 14.7854L15.6752 14.7871C15.6313 14.8486 15.5868 14.9112 15.5419 14.9744C15.2558 15.3771 14.9539 15.802 14.6974 16.0785L14.6951 16.081C14.3012 16.5001 13.7146 16.5085 13.2934 16.3339L13.2924 16.3335C13.2612 16.3205 13.2252 16.3059 13.1846 16.2895C12.7149 16.0998 11.6335 15.663 10.3384 14.51C9.2407 13.5329 8.50392 12.3275 8.29344 11.9715L8.29106 11.9675L8.29108 11.9675C8.12688 11.6838 8.0906 11.3951 8.1838 11.1215C8.25525 10.9118 8.39666 10.7476 8.46793 10.6648C8.47231 10.6597 8.47643 10.6549 8.48025 10.6504C8.57922 10.5284 8.67429 10.4254 8.7613 10.3327C8.7765 10.3165 8.79132 10.3008 8.80583 10.2853C8.87785 10.2089 8.94237 10.1403 9.00917 10.0633C9.0176 10.0536 9.02575 10.0443 9.03364 10.0352C9.19441 9.85004 9.24712 9.78934 9.3226 9.62831L9.32665 9.61968L9.33102 9.6112C9.3311 9.61105 9.33119 9.61088 9.33129 9.6107C9.333 9.60755 9.33714 9.5999 9.33268 9.5708C9.32677 9.53227 9.30885 9.48043 9.27411 9.40851L9.27261 9.4054L9.27262 9.4054C9.20784 9.2689 8.82736 8.34573 8.51146 7.57927C8.3833 7.2683 8.26576 6.98312 8.18426 6.78674C8.10293 6.59219 8.05207 6.53063 8.03816 6.51611C8.02459 6.51346 7.98009 6.50657 7.86257 6.50157L7.85886 6.50142L7.85886 6.5014C7.84818 6.50087 7.83752 6.50033 7.82688 6.49979C7.71424 6.49411 7.60371 6.48853 7.48183 6.48853C7.096 6.48853 6.77194 6.60575 6.61209 6.76884L12.6187 17.7741ZM12.6187 17.7741C9.51819 16.4896 7.42318 13.4772 6.94011 12.7826M12.6187 17.7741L6.94011 12.7826M6.94011 12.7826C6.90108 12.7265 6.87258 12.6855 6.85491 12.6618M6.94011 12.7826L6.85491 12.6618M6.85491 12.6618C6.85087 12.6563 6.84629 12.65 6.84121 12.6431C6.73724 12.5012 6.42107 12.0699 6.12268 11.4817C5.80369 10.8528 5.52783 10.0879 5.52783 9.33953C5.52783 7.87093 6.23356 7.15363 6.57941 6.80211C6.59066 6.79067 6.60154 6.77961 6.61199 6.76893L6.85491 12.6618Z" fill="#FAFAFA" stroke="white"/>
</g>
<defs>
<clipPath id="clip0_2707_3074">
<rect width="24" height="24" fill="white" transform="translate(0 0.5)"/>
</clipPath>
</defs>
</svg>
